<?xml version="1.0" standalone="no"?>
<!DOCTYPE svg PUBLIC "-//W3C//DTD SVG 1.1//EN" "http://www.w3.org/Graphics/SVG/1.1/DTD/svg11.dtd" >
<svg xmlns="http://www.w3.org/2000/svg" xmlns:xlink="http://www.w3.org/1999/xlink" version="1.1">
<metadata>
Created by FontForge 20150824 at Sat Feb 20 04:19:40 2016
 By Everything Fonts
Copyright (c) 2011, Andrew Paglinawan (www.andrewpaglinawan.com), with Reserved Font Name "Quicksand".
</metadata>
<defs>
<font id="Quicksand-Light" horiz-adv-x="613" >
  <font-face 
    font-family="Quicksand"
    font-weight="200"
    font-stretch="normal"
    units-per-em="1000"
    panose-1="2 0 3 3 0 0 0 0 0 0"
    ascent="800"
    descent="-200"
    x-height="487"
    cap-height="700"
    bbox="-24 -214 1133 923"
    underline-thickness="50"
    underline-position="-100"
    unicode-range="U+0020-2122"
  />
<missing-glyph horiz-adv-x="364" 
d="M33 0v666h265v-666h-265zM66 33h199v600h-199v-600z" />
    <glyph glyph-name=".notdef" horiz-adv-x="364" 
d="M33 0v666h265v-666h-265zM66 33h199v600h-199v-600z" />
    <glyph glyph-name=".null" horiz-adv-x="0" 
 />
    <glyph glyph-name="nonmarkingreturn" horiz-adv-x="333" 
 />
    <glyph glyph-name="space" unicode=" " horiz-adv-x="300" 
 />
    <glyph glyph-name="exclam" unicode="!" horiz-adv-x="252" 
d="M93 687q0 13 12.5 13t12.5 -13v-520q0 -12 -12.5 -12t-12.5 12v520zM93 37q0 12 13 12q4 0 8 -3.5t4 -8.5v-24q0 -13 -12.5 -13t-12.5 13v24z" />
    <glyph glyph-name="quotedbl" unicode="&#x22;" horiz-adv-x="410" 
d="M250 461l30 215q4 26 28 26h19q16 0 16 -17q0 -1 -5 -24l-57 -201q-6 -18 -17 -18q-17 0 -14 19zM70 461l30 215q4 26 28 26h19q16 0 16 -17q0 -1 -5 -24l-57 -201q-6 -18 -17 -18q-17 0 -14 19z" />
    <glyph glyph-name="numbersign" unicode="#" horiz-adv-x="700" 
 />
    <glyph glyph-name="dollar" unicode="$" horiz-adv-x="632" 
d="M505 313q74 -49 73.5 -127t-73.5 -132.5t-175 -56.5v-24q0 -22 -12 -22q-5 0 -6.5 2t-2.5 3t-1 4v37q-126 8 -241 101q-5 4 -4 11t6.5 9t11.5 -2q109 -88 227 -96v336q-97 19 -154 57q-69 46 -69 117q1 71 65.5 121t157.5 55v27q0 2 0.5 11.5t9.5 10.5q12 0 12 -22v-27
q40 -1 82 -15.5t66 -28.5t60 -38q5 -3 4.5 -9.5t-5 -9.5t-11.5 0q-36 24 -59 37t-61.5 26.5t-75.5 14.5v-308q114 -23 175 -62zM308 683q-78 -4 -139 -46t-61 -103q0 -114 200 -155v304zM330 20q87 1 156.5 48t69.5 114.5t-64 111.5q-53 36 -162 58v-332z" />
    <glyph glyph-name="ampersand" unicode="&#x26;" horiz-adv-x="696" 
d="M266 142q-17 0 -17 42q0 61 47 92t128 31q23 0 36 -1h6q64 0 69 62q0 7 -4 29q-5 11 8.5 14.5t15.5 -9.5q15 -56 -15 -92q-19 -23 -49 -28q7 -27 7 -58q0 -93 -65.5 -158.5t-159 -65.5t-159 65.5t-65.5 158.5q0 61 30 112.5t80 81.5q-52 49 -52 118t47.5 116.5
t114.5 47.5t114.5 -47.5t47.5 -114.5q0 -13 -13 -13q-5 0 -9 4t-4 9q0 57 -40 97t-96.5 40t-96 -40t-39.5 -97q0 -72 57 -112l4 -5q2 -6 -1.5 -12t-9.5 -6q-49 -26 -79 -74t-30 -105q0 -82 58 -140.5t141 -58.5t141.5 58t58.5 141q0 27 -8 56h-6q-13 2 -35 2q-87 0 -125 -36
q-24 -24 -24 -62l1 -19l1 -6q4 -11 -7 -17h-4z" />
    <glyph glyph-name="quotesingle" unicode="'" horiz-adv-x="230" 
d="M70 461l30 215q4 26 28 26h19q16 0 16 -17q0 -1 -5 -24l-57 -201q-6 -18 -17 -18q-17 0 -14 19z" />
    <glyph glyph-name="parenleft" unicode="(" horiz-adv-x="430" 
d="M286 -97q-112 0 -167 122q-48 105 -48 278t48 279q55 122 167 121q15 0 15 -14q0 -6 -4.5 -10.5t-10.5 -4.5q-92 0 -139 -101.5t-47 -269.5t47.5 -269.5t138.5 -101.5q15 0 15 -14q0 -6 -4.5 -10.5t-10.5 -4.5z" />
    <glyph glyph-name="parenright" unicode=")" horiz-adv-x="430" 
d="M242 25q-55 -122 -167 -122q-6 0 -10.5 4.5t-4.5 10.5q0 14 15 14q91 0 138.5 101.5t47.5 269.5t-47 269.5t-139 101.5q-6 0 -10.5 4.5t-4.5 10.5q0 14 15 14q112 1 167 -121q48 -106 48 -279t-48 -278z" />
    <glyph glyph-name="asterisk" unicode="*" horiz-adv-x="430" 
d="M195 424l8 109l-91 -62q-9 -6 -16.5 -6t-13.5 6.5t-6 17t14 16.5l103 49l-103 49q-14 7 -14 19q0 19 20 21q7 0 16 -6l91 -62l-8 109q-1 9 5 15.5t15 6.5t15 -6.5t5 -15.5l-8 -109l91 62q9 6 16.5 6t13.5 -6.5t6 -17t-14 -16.5l-103 -49l103 -49q14 -6 14 -16.5t-6 -17
t-13.5 -6.5t-16.5 6l-91 62l8 -109q1 -9 -5 -15.5t-15 -6.5t-15 6.5t-5 15.5z" />
    <glyph glyph-name="plus" unicode="+" horiz-adv-x="620" 
d="M293 116v211h-211q-18 0 -18 17.5t18 17.5h211v212q0 17 18 17q6 0 11.5 -5t5.5 -12v-212h212q6 0 11.5 -5t5.5 -12t-5.5 -12.5t-11.5 -5.5h-212v-211q0 -7 -5.5 -12.5t-11.5 -5.5q-18 0 -18 18z" />
    <glyph glyph-name="comma" unicode="," horiz-adv-x="230" 
d="M54 -90q0 8 8 13q51 28 47 77q-27 7 -27 35v21q0 14 9.5 23.5t23.5 9.5t23.5 -9.5t9.5 -23.5v-25q0 -77 -29.5 -106.5t-47 -29.5t-17.5 15z" />
    <glyph glyph-name="hyphen" unicode="-" horiz-adv-x="408" 
d="M76 340q-10 0 -10 10t10 10h228q9 0 9 -10t-9 -10h-228z" />
    <glyph glyph-name="period" unicode="." horiz-adv-x="230" 
d="M82 26q0 14 10 24t24 10t24 -10t10 -24t-10 -24t-24 -10t-24 10t-10 24z" />
    <glyph glyph-name="slash" unicode="/" horiz-adv-x="422" 
d="M98 8q-2 -8 -10 -8t-11.5 6t-0.5 12l283 672q2 5 7 7t9 0q12 -4 8 -16z" />
    <glyph glyph-name="zero" unicode="0" horiz-adv-x="710" 
d="M303 700q101 -1 170 -103.5t69 -246t-68.5 -246.5t-170.5 -104q-100 1 -169 104t-69 246.5t69 246t169 103.5zM155 581q-65 -97 -65 -231t65 -231q61 -94 148.5 -94t148.5 94q65 94 65 231t-65 231q-61 94 -148.5 94t-148.5 -94z" />
    <glyph glyph-name="one" unicode="1" horiz-adv-x="335" 
d="M172 686q0 5 4 9t8 4q13 0 13 -13v-673q0 -13 -13 -13q-5 0 -8.5 4t-3.5 9v673zM50 591q-2 -1 -8.5 -1t-9.5 9t6 14l140 83q11 8 17 -3.5t-5 -17.5z" />
    <glyph glyph-name="two" unicode="2" horiz-adv-x="590" 
d="M58 0q-8 0 -11.5 8t2.5 15l338 305q66 61 66 142t-56 143t-137.5 62t-139.5 -52l-35 -32q-6 -5 -13 -2.5t-8 9t4 11.5l35 33q65 58 157.5 58t159.5 -73q58 -66 58 -158.5t-75 -158.5l-314 -285h377q12 0 12 -12q0 -5 -3.5 -9t-8.5 -4h-408z" />
    <glyph glyph-name="three" unicode="3" horiz-adv-x="610" 
d="M264 466q85 -8 142 -67q68 -68 68 -164t-68 -166q-70 -68 -165 -68h-1q-97 0 -164 68q-9 9 0 18t18 0q61 -60 147 -60t146.5 60.5t60.5 146.5t-60 147q-62 60 -146 60q-6 0 -14 8.5t1 17.5l202 208h-309q-13 0 -13 13t13 13h339q13 0 13 -13q0 -7 -4 -11z" />
    <glyph glyph-name="four" unicode="4" horiz-adv-x="664" 
d="M473 694q5 5 9 5t13 -9q1 -2 1 -3v-513h61q13 0 13 -12.5t-13 -12.5h-61v-136q0 -13 -13 -13q-5 0 -9 4t-4 9v136h-409q-7 0 -11 7t1 13zM87 174h383v474z" />
    <glyph glyph-name="five" unicode="5" horiz-adv-x="605" 
d="M394 69q-68 -69 -164 -69t-165 69q-6 5 -3.5 12t9 9t12.5 -3q63 -61 147.5 -61t145.5 61t61 147t-60.5 146t-145.5 60t-148 -60q-2 -4 -7.5 -4t-9.5 3q-2 0 -2 2q-4 4 -3 11l35 295q2 13 16 13h338q5 0 9 -4t4 -9q0 -13 -13 -13h-329l-30 -254q61 46 139 46q98 0 166 -68
q67 -69 67 -165.5t-69 -163.5z" />
    <glyph glyph-name="six" unicode="6" horiz-adv-x="642" 
d="M68 201q-4 4 -4 76t19 146.5t55.5 136t97.5 99.5t139 41q13 0 13 -12.5t-11 -12.5q-128 -6 -199.5 -103.5t-85.5 -240.5q28 56 82 89t119 33q94 0 160.5 -66t67.5 -160q-1 -94 -67.5 -160.5t-157.5 -66.5t-155 57.5t-73 143.5zM151 369q-59 -59 -59 -142.5t59 -142.5
t142.5 -59t142 59t60.5 143q-2 84 -60.5 142.5t-142 58.5t-142.5 -59z" />
    <glyph glyph-name="seven" unicode="7" horiz-adv-x="587" 
d="M194 8q-2 -8 -8.5 -7.5t-7.5 0.5q-11 5 -7 17l275 655h-369q-13 0 -13 13q0 5 4 9t9 4h390q5 0 9 -4.5t4 -8t-4 -9.5z" />
    <glyph glyph-name="eight" unicode="8" horiz-adv-x="630" 
d="M139 561q0 58 40.5 98.5t98 40.5t98 -40.5t40.5 -98.5q0 -41 -22 -74.5t-57 -50.5q71 -20 117.5 -79t46.5 -143t-65.5 -149t-157.5 -65t-157.5 65t-65.5 149t46.5 143t117.5 79q-36 17 -58 50.5t-22 74.5zM80 222q0 -82 58 -139.5t140 -57.5t140 57.5t58 139.5t-58 140
t-140 58t-140 -58t-58 -140zM164 561q0 -47 33.5 -80t80 -33t80 33t33.5 80t-33 80t-80 34q-47 -1 -80.5 -34t-33.5 -80z" />
    <glyph glyph-name="nine" unicode="9" horiz-adv-x="642" 
d="M519 492q4 -25 4 -83t-19 -132.5t-56 -136t-98 -99.5t-138 -41q-13 0 -13 13q-1 4 2.5 8t8.5 4q144 7 222 138q51 89 62 205q-28 -55 -82 -88t-118 -33q-94 0 -161 66t-67 160t67 160.5t158 66.5t155.5 -60t72.5 -148zM494 488v5q-8 77 -65 129.5t-138 52.5t-140.5 -59
t-59.5 -142.5t59.5 -142.5t143 -59t142.5 59t59 142q0 10 -1 15z" />
    <glyph glyph-name="colon" unicode=":" horiz-adv-x="240" 
d="M87 481q0 14 9.5 23.5t23.5 9.5t23.5 -9.5t9.5 -23.5v-27q0 -14 -9.5 -23.5t-23.5 -9.5t-23.5 9.5t-9.5 23.5v27zM87 56q0 14 9.5 23.5t23.5 9.5t23.5 -9.5t9.5 -23.5v-27q0 -14 -9.5 -23.5t-23.5 -9.5t-23.5 9.5t-9.5 23.5v27z" />
    <glyph glyph-name="semicolon" unicode=";" horiz-adv-x="240" 
d="M87 481q0 14 9.5 23.5t23.5 9.5t23.5 -9.5t9.5 -23.5v-27q0 -14 -9.5 -23.5t-23.5 -9.5t-23.5 9.5t-9.5 23.5v27zM59 -90q0 8 8 13q51 28 47 77q-27 7 -27 35v21q0 14 9.5 23.5t23.5 9.5t23.5 -9.5t9.5 -23.5v-25q0 -77 -29.5 -106.5t-47 -29.5t-17.5 15z" />
    <glyph glyph-name="less" unicode="&#x3c;" horiz-adv-x="620" 
d="M396 4l-330 333q-1 0 -3 2.5t-2 4.5q-2 4 2 13q3 3 333 337q11 11 22 0q7 -11 0 -22l-322 -324l322 -323q7 -10 0 -21q-4 -4 -11 -4t-11 4z" />
    <glyph glyph-name="equal" unicode="=" horiz-adv-x="620" 
d="M79 244q0 16 15 16h342q6 0 10.5 -5t4.5 -11q0 -13 -15 -13h-342q-15 0 -15 13zM79 451q0 15 15 15h342q6 0 10.5 -4.5t4.5 -10t-4.5 -9t-10.5 -3.5h-342q-15 0 -15 12z" />
    <glyph glyph-name="greater" unicode="&#x3e;" horiz-adv-x="620" 
d="M450 352v-8q-1 -1 -3 -4t-332 -336q-4 -4 -11 -4t-11 4q-7 11 0 21l321 323l-321 324q-7 11 0 22q11 11 22 0l329 -334l2 -1q0 -1 0.5 -1t3.5 -6z" />
    <glyph glyph-name="question" unicode="?" horiz-adv-x="534" 
d="M212 155v134q0 12 12 12q76 0 131 55t55 132.5t-54.5 132.5t-131.5 55q-52 0 -95 -25.5t-68 -68.5q-8 -10 -17 -2.5t-3 14.5q27 49 76 77.5t107 28.5q86 0 148.5 -62t62.5 -148t-58.5 -147t-140.5 -66v-122q0 -5 -4 -8.5t-8 -3.5q-12 0 -12 12zM212 12v23q0 12 12 12
q4 0 8 -3.5t4 -8.5v-23q0 -12 -12 -12t-12 12z" />
    <glyph glyph-name="at" unicode="@" horiz-adv-x="980" 
d="M630 118l-19 -1q-26 0 -43.5 19t-17.5 45v76q-23 -41 -62 -65t-85 -24q-70 0 -121 54t-51 128.5t50.5 127.5t121.5 53t121 -53t50 -128v-166q0 -16 10.5 -28.5t23 -12.5t16.5 3q34 6 64 48l5 9q35 68 35 147q0 135 -95 230t-229.5 95t-229.5 -95t-95 -229.5t95 -229.5
t229 -95q44 0 80 10q12 2 17 -9q2 -12 -10 -17q-45 -10 -87 -10q-145 0 -247.5 102.5t-102.5 247.5t102.5 248t247.5 103t248 -102.5t103 -248.5q0 -85 -39 -160q-11 -21 -35.5 -43t-49.5 -29zM300 461q-43 -46 -43 -110.5t43 -110.5t103 -46t103.5 46t43.5 110.5
t-43.5 110.5t-103.5 46t-103 -46z" />
    <glyph glyph-name="A" unicode="A" horiz-adv-x="646" 
d="M581 3q-1 0 -6.5 -0.5t-10.5 8.5l-67 179h-350l-67 -179q-2 -9 -11 -9q-4 1 -5 1q-11 5 -6 17l252 672q3 10 12 9t14 -9l252 -672q5 -11 -7 -17zM322 654l-165 -438h330z" />
    <glyph glyph-name="B" unicode="B" horiz-adv-x="594" 
d="M104 13v674q0 13 13 13h160q70 0 119.5 -49.5t49.5 -118.5q0 -47 -23.5 -86t-63.5 -61q68 -13 113 -66.5t45 -129t-56.5 -132.5t-137.5 -57h-206q-13 0 -13 13zM129 25h194q70 0 119 49.5t49 119.5t-49 119.5t-119 49.5h-194v-338zM129 390h148q59 0 100.5 41.5
t42.5 100.5q-1 58 -42.5 100t-100.5 43h-148v-285z" />
    <glyph glyph-name="C" unicode="C" horiz-adv-x="771" 
d="M647 97q11 7 19 -1.5t-3 -18.5q-103 -77 -227 -77q-150 1 -256.5 105t-106.5 250.5t106.5 250.5t256.5 104q127 0 227 -77q11 -9 4 -18q-11 -11 -19 -2q-92 71 -212 71q-139 0 -238 -96t-99 -232.5t99 -233t238 -96.5q119 0 211 71z" />
    <glyph glyph-name="D" unicode="D" horiz-adv-x="719" 
d="M104 13v674q0 13 13 13h134q145 0 247.5 -102.5t102.5 -247.5t-102.5 -247.5t-247.5 -102.5h-134q-13 0 -13 13zM129 25h122q135 2 229.5 96.5t95.5 229.5q-1 134 -95.5 229t-229.5 95h-122v-650z" />
    <glyph glyph-name="E" unicode="E" horiz-adv-x="593" 
d="M489 0h-373q-12 0 -12 13v674q0 11 12 13h373q12 0 12 -12.5t-12 -12.5h-360v-312h317q12 0 12 -12.5t-12 -12.5h-317v-313h360q12 0 12 -12.5t-12 -12.5z" />
    <glyph glyph-name="F" unicode="F" horiz-adv-x="605" 
d="M104 13v674q0 13 11 13h374q12 0 12 -12.5t-12 -12.5h-361v-312h318q12 0 12 -12.5t-12 -12.5h-318v-325q0 -13 -13 -13q-11 0 -11 13z" />
    <glyph glyph-name="G" unicode="G" horiz-adv-x="814" 
d="M652 332h-215q-5 0 -9 4t-4 9t4 9t9 4h229q12 0 12 -14v-254q0 -2 -1 -3v-2q-1 -5 -4 -7q-101 -78 -230 -78q-153 1 -261.5 106.5t-108.5 254.5t108.5 254.5t261.5 105.5q131 0 230 -78q12 -9 2.5 -19.5t-18.5 -1.5q-93 74 -214 74q-142 0 -243 -98t-101 -236.5
t100.5 -237t243.5 -98.5q116 0 209 69v237z" />
    <glyph glyph-name="H" unicode="H" horiz-adv-x="709" 
d="M527 13v325h-398v-325q0 -5 -3.5 -9t-8.5 -4q-13 0 -13 13v674q0 13 13 13q5 0 8.5 -4t3.5 -9v-324h398v324q0 13 12.5 13t12.5 -13v-674q0 -13 -12.5 -13t-12.5 13z" />
    <glyph glyph-name="I" unicode="I" horiz-adv-x="305" 
d="M111 687q0 13 12.5 13t12.5 -13v-674q0 -13 -12.5 -13t-12.5 13v674z" />
    <glyph glyph-name="J" unicode="J" horiz-adv-x="594" 
d="M45 162q-6 11 6.5 15t17.5 -7q20 -64 74.5 -104.5t122.5 -40.5q86 2 147 62.5t62 146.5v453q0 13 11 13q13 0 13 -13v-453q0 -97 -68 -165.5t-165 -68.5q-77 0 -137.5 45.5t-83.5 116.5z" />
    <glyph glyph-name="K" unicode="K" horiz-adv-x="715" 
d="M104 13v673q0 13 13 13q5 0 9 -4.5t4 -8.5v-450l459 459q6 5 13 2.5t8.5 -8.5t-3.5 -12l-286 -286l287 -369q5 -8 1.5 -15t-8.5 -7t-12 5l-286 368l-173 -174v-186q0 -5 -4 -9t-9 -4q-13 0 -13 13z" />
    <glyph glyph-name="L" unicode="L" horiz-adv-x="563" 
d="M490 0h-373q-13 0 -13 13v674q0 13 12.5 13t12.5 -13v-662h361q13 0 13 -12.5t-13 -12.5z" />
    <glyph glyph-name="M" unicode="M" horiz-adv-x="844" 
d="M664 13v636l-255 -355q-5 -5 -11 -5h-2q-8 0 -11 5l-256 356v-637q0 -13 -12.5 -13t-12.5 13v673q0 5 4 9t8 4q6 0 13 -5l268 -372l268 372q5 5 11 5q13 0 13 -13v-673q0 -13 -13 -13q-5 0 -8.5 4t-3.5 9z" />
    <glyph glyph-name="N" unicode="N" horiz-adv-x="771" 
d="M589 9l-460 639v-635q0 -13 -12 -13q-5 0 -9 4t-4 9v672q0 6 5 11q11 6 18 -2l462 -642v630q0 5 4 9t9 4q12 0 12 -13v-669q0 -13 -12 -13q-9 0 -12 8q-1 0 -1 1z" />
    <glyph glyph-name="O" unicode="O" horiz-adv-x="850" 
d="M173 604.5q99 105.5 240.5 105.5t241 -105.5t101.5 -255.5q-2 -151 -101 -256.5t-241 -105.5t-241 105.5t-100 256.5q1 150 100 255.5zM414 14q129 2 221 99.5t93 235.5q-1 139 -93 237t-221 98t-221.5 -98t-92.5 -236.5t92 -236t222 -99.5z" />
    <glyph glyph-name="P" unicode="P" horiz-adv-x="583" 
d="M104 13v674q0 13 13 13h205q80 0 137.5 -57t57.5 -138t-57 -137.5t-138 -56.5h-193v-298q0 -13 -12.5 -13t-12.5 13zM129 337h193q70 0 119.5 49t49.5 119t-49.5 120t-119.5 50h-193v-338z" />
    <glyph glyph-name="Q" unicode="Q" horiz-adv-x="844" 
d="M789 -69q6 5 13 2q14 -7 3 -23q-75 -58 -154 -58t-175 57q-41 25 -92.5 25t-104.5 -25q-12 -6 -18.5 6t5.5 19l143 67h-9q-137 0 -235 103.5t-99 249.5q1 147 99 251.5t236 104.5t236.5 -104.5t98.5 -251.5q0 -108 -58 -197.5t-151 -130.5l-143 -67q59 0 104 -28
q92 -54 163 -54t138 54zM183.5 587q-90.5 -96 -90.5 -232.5t90.5 -232.5t218 -96t218.5 96t91 233t-91 232.5t-218.5 95.5t-218 -96z" />
    <glyph glyph-name="R" unicode="R" horiz-adv-x="625" 
d="M363 319q127 -53 127 -168q0 -72 15 -102q6 -12 18 -11t14 -11q1 -9 -4 -12.5t-13 -3.5q-22 0 -36 27q-19 32 -19 113q0 63 -54 111.5t-173 48.5h-123v-298q0 -13 -12.5 -13t-12.5 13v674q0 13 13 13h205q80 0 137.5 -57t57.5 -130.5t-39 -125t-101 -68.5zM115 337h195
q69 1 118 49.5t49 118.5t-49.5 120t-119.5 50h-193v-338z" />
    <glyph glyph-name="S" unicode="S" horiz-adv-x="667" 
d="M117 59q-36 22 -46.5 32.5t-8 17.5t8.5 9t13 -4.5t31.5 -24.5t87 -43.5t123.5 -25.5q101 0 170.5 50t69.5 123q0 57 -33 86q-18 16 -34 26.5t-47 20.5q-36 12 -90.5 25t-74.5 18.5t-53 16.5t-50.5 23t-37.5 30q-36 34 -36 100.5t63.5 115.5t153.5 49q99 0 177 -54
q28 -19 36 -31q8 -9 -1 -18q-11 -7 -18 1q-76 76 -194 76q-79 0 -135 -41t-56 -99q0 -55 42 -94q31 -28 108 -48q22 -6 63.5 -15.5t62 -15t54 -16.5t51.5 -23.5t37 -31.5q37 -34 37 -101q0 -83 -76.5 -140.5t-185 -57.5t-212.5 64z" />
    <glyph glyph-name="T" unicode="T" horiz-adv-x="648" 
d="M294 13v662h-231q-13 0 -13 12.5t13 12.5h487q13 0 13 -12.5t-13 -12.5h-230v-662q0 -5 -4 -9t-9 -4q-13 0 -13 13z" />
    <glyph glyph-name="U" unicode="U" horiz-adv-x="814" 
d="M105 281v406q0 13 12.5 13t12.5 -13v-406q0 -106 74.5 -180t180.5 -76q105 2 179.5 76t75.5 180v406q0 13 13 13q5 0 9 -4t4 -9v-406q0 -117 -82.5 -199t-198.5 -82t-198 82t-82 199z" />
    <glyph glyph-name="V" unicode="V" horiz-adv-x="750" 
d="M354 0h-3l-2 1q-3 0 -7 7l-283 673q-4 7 0.5 12t12 4.5t11.5 -6.5l271 -645l272 645q4 12 16 6q11 -3 7 -16l-283 -673l-1 -1q-1 -5 -6 -6h-1q-1 -1 -4 -1z" />
    <glyph glyph-name="W" unicode="W" horiz-adv-x="1102" 
d="M764 9l-196 469l-198 -470q-3 -8 -11 -8t-12 8l-283 673q-7 11 6 16q12 3 17 -6l271 -646l196 465q3 9 13 9q9 2 14 -9l195 -465l272 646q4 6 11.5 6.5t12 -4.5t0.5 -12l-283 -673q-4 -8 -12.5 -8t-12.5 9z" />
    <glyph glyph-name="X" unicode="X" horiz-adv-x="722" 
d="M97 5q-8 -5 -13 -5t-8.5 7t1.5 13l240 329l-240 330q-5 6 -1.5 12.5t10 7t11.5 -4.5l235 -323l236 323q7 9 17 2t4 -17l-241 -330l241 -329q3 -6 -0.5 -13t-8 -7t-12.5 5l-236 323z" />
    <glyph glyph-name="Y" unicode="Y" horiz-adv-x="604" 
d="M304 13v329l-245 337q-10 10 2 16.5t18 -1.5l238 -327l237 327q5 5 12.5 3.5t10.5 -7t-1 -11.5l-247 -337v-329q0 -13 -12.5 -13t-12.5 13z" />
    <glyph glyph-name="Z" unicode="Z" horiz-adv-x="667" 
d="M588 686q0 -5 -5 -10l-475 -651h467q13 0 13 -12.5t-13 -12.5h-491q-13 0 -13 13q0 7 5 10l473 650h-465q-13 0 -13 13t13 13h491q13 0 13 -13z" />
    <glyph glyph-name="bracketleft" unicode="[" horiz-adv-x="430" 
d="M98 -104v778q0 10 8 18t18 8h232q18 0 18 -14q0 -10 -18 -10h-233v-782h233q18 0 18 -13q0 -11 -18 -11h-232q-10 0 -18 8t-8 18z" />
    <glyph glyph-name="backslash" unicode="\" horiz-adv-x="448" 
d="M364 2q-1 -1 -7.5 -1t-8.5 8l-285 673q-4 12 8 16q4 2 9 0t7 -7l283 -672q5 -12 -6 -17z" />
    <glyph glyph-name="bracketright" unicode="]" horiz-adv-x="430" 
d="M331 674v-778q0 -10 -7.5 -18t-18.5 -8h-232q-18 0 -18 11q0 13 18 13h233v782h-233q-18 0 -18 10q0 14 18 14h232q11 0 18.5 -8t7.5 -18z" />
    <glyph glyph-name="asciicircum" unicode="^" horiz-adv-x="500" 
d="M93 173q-8 1 -10 13t4 16l179 137q13 10 22 10t22 -10l178 -137q9 -6 9 -17.5t-5 -14.5q-11 -4 -25 7l-178 141l-180 -141q-6 -5 -16 -4z" />
    <glyph glyph-name="underscore" unicode="_" horiz-adv-x="600" 
d="M-2 -160q-22 0 -22 17t22 17h334q22 0 22 -17t-22 -17h-334z" />
    <glyph glyph-name="grave" unicode="`" horiz-adv-x="500" 
d="M274 612q4 -6 4 -12t-11.5 -1t-19.5 14l-71 77q-13 13 -10 18q0 15 17 15t29 -18z" />
    <glyph glyph-name="a" unicode="a" horiz-adv-x="619" 
d="M477 477q0 13 12.5 13t12.5 -13v-464q0 -13 -12.5 -13t-12.5 13v122q-29 -61 -84.5 -98t-121.5 -37q-96 0 -163.5 72t-67.5 173t67.5 173t163.5 72q66 0 121.5 -37t84.5 -98v122zM271 25q85 0 145.5 64.5t60.5 155.5t-60.5 155t-145.5 64t-145.5 -64t-60.5 -155
t60.5 -155.5t145.5 -64.5z" />
    <glyph glyph-name="b" unicode="b" horiz-adv-x="660" 
d="M93 13v672q0 15 13 15q4 0 8 -5t4 -10v-330q30 61 86.5 98t124.5 37q99 0 168.5 -71.5t69.5 -172.5t-69.5 -173.5t-168.5 -72.5q-68 0 -124.5 37t-86.5 97v-121q0 -5 -3.5 -9t-8.5 -4q-13 0 -13 13zM118 255v-9q0 -91 62 -156t149.5 -65t150 65t62.5 156t-62.5 155
t-148.5 64t-148 -61.5t-65 -148.5z" />
    <glyph glyph-name="c" unicode="c" horiz-adv-x="571" 
d="M58 245q0 101 74 173t170.5 72t163.5 -53q8 -8 1.5 -17.5t-17.5 -2.5q-62 48 -148.5 48t-152.5 -64.5t-66 -155.5t66 -155.5t161 -64.5q76 0 140 49q9 6 16.5 -3.5t-0.5 -17.5q-69 -53 -156 -53q-104 1 -178 72.5t-74 172.5z" />
    <glyph glyph-name="d" unicode="d" horiz-adv-x="660" 
d="M534 13q0 -13 -13 -13q-5 0 -8.5 4t-3.5 9v121q-30 -60 -86.5 -97t-124.5 -37q-99 0 -168.5 72.5t-69.5 173.5t69.5 172.5t168.5 71.5q68 0 124.5 -37t86.5 -98v330q0 5 4 10t8 5q13 0 13 -15v-672zM509 246v9q-3 87 -65 148.5t-148 61.5t-148.5 -64t-62.5 -155
t62.5 -156t150 -65t149.5 65t62 156z" />
    <glyph glyph-name="e" unicode="e" horiz-adv-x="609" 
d="M531 264v-4q-2 -12 -12 -12h-436v-3q0 -90 62.5 -154.5t150.5 -65.5q55 0 101.5 27t74.5 73q7 10 17.5 3t3.5 -17q-32 -50 -84.5 -80.5t-112.5 -30.5q-98 1 -167 72.5t-71 172.5q2 102 71 173.5t164.5 71.5t163 -65t74.5 -161zM436 409q-60 55 -140.5 55t-141 -55
t-70.5 -137h422q-10 82 -70 137z" />
    <glyph glyph-name="f" unicode="f" horiz-adv-x="362" 
d="M280 701q13 0 13 -12.5t-13 -12.5q-52 0 -74 -24.5t-22 -91.5v-66h84q12 0 12 -13t-12 -13h-84v-454q0 -13 -13 -13t-13 13v454h-80q-13 0 -13 13t13 13h80v66q0 75 29.5 108t92.5 33z" />
    <glyph glyph-name="g" unicode="g" horiz-adv-x="660" 
d="M509 490q13 0 13 -13v-449q0 -96 -67.5 -164t-163.5 -68q-51 0 -102 24q-10 7 -5 16.5t17 6.5q44 -22 90 -22q86 2 146 62t60 145v107q-28 -60 -84 -97.5t-122 -37.5q-96 0 -163.5 72t-67.5 173t67.5 173t163.5 72q66 0 122 -37t84 -97v121q0 5 3.5 9t8.5 4zM497 245
q0 91 -60.5 155.5t-145.5 64.5t-145.5 -64.5t-60.5 -155.5t60.5 -155t145.5 -64t145.5 64t60.5 155z" />
    <glyph glyph-name="h" unicode="h" 
d="M106 0q-13 0 -13 11v676q0 13 12.5 13t12.5 -13v-300q26 47 72.5 75t101.5 28q82 0 140 -58t58 -141v-278q0 -5 -3.5 -9t-8.5 -4q-13 0 -13 13v278q0 72 -50.5 122.5t-121.5 50.5t-121.5 -48.5t-53.5 -117.5v-285q0 -13 -10 -13h-2z" />
    <glyph glyph-name="i" unicode="i" horiz-adv-x="281" 
d="M94 13v465q0 12 12.5 12t12.5 -12v-465q0 -5 -3.5 -9t-8.5 -4q-13 0 -13 13zM94 611v24q0 13 12.5 13t12.5 -13v-24q0 -5 -3.5 -8.5t-8.5 -3.5q-13 0 -13 12z" />
    <glyph glyph-name="j" unicode="j" horiz-adv-x="249" 
d="M7 -203q-12 0 -12 12.5t16.5 12.5t31.5 15t15 37v604q0 12 12 12q5 0 9.5 -3.5t4.5 -8.5v-604q0 -32 -22.5 -54.5t-54.5 -22.5zM60 613v24q0 13 13 13q5 0 9.5 -4t4.5 -9v-24q0 -5 -4.5 -8.5t-9.5 -3.5q-13 0 -13 12z" />
    <glyph glyph-name="k" unicode="k" horiz-adv-x="560" 
d="M93 13v674q0 13 13 13q5 0 8.5 -4t3.5 -9v-519l322 322q8 8 17.5 -0.5t0.5 -17.5l-203 -203l203 -247q5 -6 1.5 -14t-10.5 -8t-10 5l-203 245l-115 -115q-2 -2 -3 -2v-120q0 -5 -3.5 -9t-8.5 -4q-13 0 -13 13z" />
    <glyph glyph-name="l" unicode="l" horiz-adv-x="249" 
d="M100 687q0 13 12.5 13t12.5 -13v-674q0 -13 -12.5 -13t-12.5 13v674z" />
    <glyph glyph-name="m" unicode="m" horiz-adv-x="951" 
d="M486 9l-2 -5q-4 -4 -10 -4q-12 0 -12 13v279q0 72 -50.5 122.5t-120.5 50.5t-120 -48.5t-52 -117.5v-286l-3 -9l-2 -1q-3 -3 -7 -3h-3q-11 2 -11 13v279q0 8 2 24v161q0 13 12 13t12 -13v-89q26 47 71.5 74.5t103.5 27.5t108.5 -35.5t71.5 -92.5q21 57 71.5 92.5
t113.5 35.5q81 0 138 -58t57 -140v-279q0 -13 -12 -13q-5 0 -9 4t-4 9v279q0 72 -50 122.5t-120 50.5t-120 -48.5t-52 -117.5v-286q0 -3 -1 -4z" />
    <glyph glyph-name="n" unicode="n" 
d="M102 0q-2 2 -4.5 2t-2.5 4q-2 2 -2 5v467q0 12 12.5 12t12.5 -12v-90q26 46 72 74t101 28q81 0 139 -58t58 -140v-279q0 -13 -12.5 -13t-12.5 13v279q0 72 -50.5 122.5t-121.5 50.5t-122 -50.5t-51 -122.5v-279q0 -13 -12 -13h-4z" />
    <glyph glyph-name="o" unicode="o" horiz-adv-x="625" 
d="M301 490q96 0 164 -72t68 -173t-68 -173t-164 -72t-163.5 72t-67.5 173t67.5 173t163.5 72zM301 25q85 0 146 64.5t61 155.5t-61 155.5t-146 64.5t-145.5 -64.5t-60.5 -155.5t60.5 -155.5t145.5 -64.5z" />
    <glyph glyph-name="p" unicode="p" horiz-adv-x="660" 
d="M93 -201v678q0 13 12.5 13t12.5 -13v-121q29 61 85.5 97.5t123.5 36.5q99 0 167.5 -70.5t68.5 -171.5t-68.5 -172t-167.5 -71q-67 0 -123.5 36.5t-85.5 96.5v-339q0 -13 -12.5 -13t-12.5 13zM118 257v-9q0 -90 61.5 -153.5t147.5 -63.5t148 63.5t62 153t-62 153.5
t-146.5 64t-146 -61t-64.5 -147z" />
    <glyph glyph-name="q" unicode="q" horiz-adv-x="660" 
d="M530 -201q0 -13 -12.5 -13t-12.5 13v339q-29 -60 -85.5 -96.5t-123.5 -36.5q-99 0 -167.5 71t-68.5 172t68.5 171.5t167.5 70.5q67 0 123.5 -36.5t85.5 -97.5v121q0 13 12.5 13t12.5 -13v-678zM505 248v9q-3 86 -64.5 147t-146 61t-146.5 -64t-62 -153.5t62 -153
t148 -63.5t147.5 63.5t61.5 153.5z" />
    <glyph glyph-name="r" unicode="r" horiz-adv-x="439" 
d="M344 464q-148 0 -226 -222v-229q0 -13 -12 -13t-12 13v229q-1 2 0 6v229q0 5 3.5 9t8.5 4q12 0 12 -13v-166q14 33 31 58q81 121 195 121q13 0 13 -13t-13 -13z" />
    <glyph glyph-name="s" unicode="s" horiz-adv-x="492" 
d="M251 0q-46 0 -93 18q-63 25 -91 53q-6 6 -3.5 13t8.5 9t12 -3.5t22.5 -17.5t59.5 -29.5t85 -17.5q67 0 114.5 34t47.5 82q0 38 -23 58q-25 22 -51 31q-35 11 -72 19.5t-52.5 12.5t-43 15.5t-40.5 23.5q-35 32 -35 80.5t45.5 83.5t99.5 35t92 -16q54 -22 69 -44
q5 -5 2 -12t-9.5 -8.5t-11.5 3.5q-51 51 -132 51q-53 0 -91 -27t-38 -66q0 -51 46 -73q36 -18 84.5 -29t66 -16t44 -15.5t40.5 -23.5q36 -33 36 -87.5t-54.5 -95.5t-133.5 -41z" />
    <glyph glyph-name="t" unicode="t" horiz-adv-x="400" 
d="M244 490q13 0 13 -12.5t-13 -12.5h-80v-390q0 -21 15 -36t32 -15t17 -12.5t-13 -12.5q-31 0 -53.5 22.5t-22.5 53.5v390h-84q-13 0 -13 12.5t13 12.5h84v196q0 13 12.5 13t12.5 -13v-196h80z" />
    <glyph glyph-name="u" unicode="u" 
d="M83 477q0 13 13 13q5 0 8.5 -4t3.5 -9v-279q0 -72 50 -122.5t121 -50.5t121.5 50.5t50.5 122.5v279q0 5 4 9t9 4q13 0 13 -13v-279q0 -82 -58 -140t-139.5 -58t-139 58t-57.5 140v279z" />
    <glyph glyph-name="v" unicode="v" horiz-adv-x="582" 
d="M264 0h-4q-6 2 -9 8l-195 463q-3 6 1.5 11.5t11.5 5t10 -7.5l184 -435l184 435q2 8 9 8t12 -5.5t2 -11.5l-195 -462q0 -3 -4 -6t-7 -3z" />
    <glyph glyph-name="w" unicode="w" horiz-adv-x="861" 
d="M568 8q0 -3 -4 -5.5t-7.5 -2.5t-5.5 1q-6 0 -6 5q-1 0 -1 1v1l-132 314l-132 -314q-3 -7 -9 -8h-6q-3 0 -6.5 3.5t-3.5 6.5l-194 461q-6 12 7 16q11 6 17 -6l183 -436l131 312q3 9 12 8t14 -8l131 -312l184 436q2 7 9.5 7t12 -5t1.5 -12z" />
    <glyph glyph-name="x" unicode="x" horiz-adv-x="570" 
d="M73 3q-10 6 -2 17l164 225l-164 224q-8 9 2 17q11 6 18 -3l160 -218l157 218q5 5 12.5 4t10.5 -6.5t-1 -11.5l-163 -224l163 -225q8 -11 -4 -17q-1 -3 -7.5 -3t-10.5 5l-157 218l-160 -218q-4 -5 -9.5 -5t-8.5 3z" />
    <glyph glyph-name="y" unicode="y" horiz-adv-x="588" 
d="M418 479q0 4 4 7.5t9 3.5h2h1l2 -1q7 -7 7 -12v-449q0 -95 -67 -162.5t-163 -67.5q-52 0 -100 24q-12 5 -5 17q4 11 15 6q44 -22 90 -22q85 0 145 60t60 145v74q-24 -46 -69.5 -73t-99.5 -27q-82 0 -139.5 57.5t-57.5 138.5v279q0 13 13 13q5 0 8.5 -4t3.5 -9v-279
q0 -71 50.5 -121t120 -50t118.5 48t52 116v288z" />
    <glyph glyph-name="z" unicode="z" horiz-adv-x="554" 
d="M428 479v-4v-1q-2 -5 -6 -9l-322 -440h315q13 0 13 -12.5t-13 -12.5h-339q-8 0 -12 6.5t2 13.5l324 444h-314q-12 0 -12 13t12 13h336q12 0 16 -11z" />
    <glyph glyph-name="braceleft" unicode="{" horiz-adv-x="480" 
d="M406 -139q-119 24 -160 70.5t-41 130.5v79q0 64 -26.5 95.5t-99.5 31.5q-24 0 -24 19t24 19q73 0 99.5 31.5t26.5 95.5v79q0 84 41 130.5t160 70.5q21 4 21 -9q0 -9 -12 -13q-106 -28 -143.5 -68t-37.5 -117v-75q0 -63 -26.5 -96t-77.5 -48q54 -18 79 -49.5t25 -94.5v-75
q0 -77 37.5 -117t143.5 -68q12 -4 12 -15t-21 -7z" />
    <glyph glyph-name="bar" unicode="|" horiz-adv-x="286" 
d="M121 -110v890q0 22 13 22q16 0 16 -22v-890q0 -22 -16 -22q-13 0 -13 22z" />
    <glyph glyph-name="braceright" unicode="}" horiz-adv-x="480" 
d="M74 -139q-21 -4 -21 7t12 15q106 28 143.5 68t37.5 117v75q0 63 25 94.5t79 49.5q-51 15 -77.5 48t-26.5 96v75q0 77 -37.5 117t-143.5 68q-12 4 -12 13q0 13 21 9q119 -24 160 -70.5t41 -130.5v-79q0 -64 26.5 -95.5t99.5 -31.5q24 0 24 -19t-24 -19q-73 0 -99.5 -31.5
t-26.5 -95.5v-79q0 -84 -41 -130.5t-160 -70.5z" />
    <glyph glyph-name="asciitilde" unicode="~" horiz-adv-x="460" 
d="M117 253q-6 -12 -16 -12q-16 0 -16 13q0 2 5.5 19.5t29.5 36t44 18.5t66 -19t63 -19q31 0 50 43q0 8 4.5 12.5t8.5 4.5q18 0 18 -17q0 -6 -2 -12q-22 -68 -79 -68q-18 0 -64 19.5t-64 19.5q-31 0 -48 -39z" />
    <glyph glyph-name="exclamdown" unicode="&#xa1;" horiz-adv-x="252" 
d="M93 533q0 12 12.5 12t12.5 -12v-520q0 -13 -12.5 -13t-12.5 13v520zM93 687q0 13 12.5 13t12.5 -13v-24q0 -5 -4 -8.5t-8 -3.5q-13 0 -13 12v24z" />
    <glyph glyph-name="cent" unicode="&#xa2;" horiz-adv-x="581" 
d="M167 -3q0 -8 -8.5 -8t-12.5 5.5t-1 11.5l21 41q-48 34 -76 86t-28 111q0 101 73.5 173t177.5 72q32 0 69 -10l20 39q2 5 7 7t9.5 0.5t7 -6.5t1.5 -9l-20 -39q31 -12 62 -35q8 -8 1.5 -17.5t-17.5 -2.5q-29 21 -57 32l-199 -392q53 -31 122.5 -31t133.5 49q9 6 16.5 -3.5
t-0.5 -17.5q-69 -53 -156 -53q-67 0 -127 34zM313 464q-94 0 -160 -64.5t-66 -155.5q0 -53 24 -99t66 -76l194 387q-30 8 -58 8z" />
    <glyph glyph-name="sterling" unicode="&#xa3;" horiz-adv-x="644" 
d="M509 322q0 -11 -9 -11h-319v-293l380 -1q22 -4 24 -12q0 -9 -5.5 -10.5t-18.5 -1.5h-482q-13 0 -13 6q0 9 12 10l78 9v293h-66q-21 0 -22.5 4t-1.5 7q0 14 24 14h66v128q0 106 57.5 172.5t157.5 66.5q121 0 200 -93q7 -9 7 -19t-4 -10l-14 1q-7 0 -15 12q-62 86 -174 86
q-36 0 -73 -14.5t-60 -37.5t-40 -69.5t-17 -93.5v-129h304q24 0 24 -14z" />
    <glyph glyph-name="yen" unicode="&#xa5;" horiz-adv-x="686" 
d="M303 13v164h-158q-15 0 -15 13q0 16 15 16h158v124h-158q-15 0 -15 12q0 15 15 15h147l-234 322q-10 10 2 16.5t18 -1.5l238 -327l237 327q5 5 12.5 3.5t10.5 -7t-1 -11.5l-236 -322h148q6 0 10.5 -4.5t4.5 -10t-4.5 -9t-10.5 -3.5h-159v-124h159q6 0 10.5 -5t4.5 -11
q0 -13 -15 -13h-159v-164q0 -13 -12.5 -13t-12.5 13z" />
    <glyph glyph-name="dieresis" unicode="&#xa8;" horiz-adv-x="500" 
d="M133 637q0 14 10 24t24 10t23.5 -10t9.5 -24t-9.5 -24t-23.5 -10t-24 10t-10 24zM315 637q0 14 10 24t24 10t24 -10t10 -24t-10 -24t-24 -10t-24 10t-10 24z" />
    <glyph glyph-name="copyright" unicode="&#xa9;" horiz-adv-x="830" 
d="M414 -12q-151 0 -256 105.5t-105 254.5v2q0 149 106 255.5t257 106.5t256 -105.5t105 -254.5v-2q0 -149 -106 -255.5t-257 -106.5zM414 16q141 0 237 97.5t96 236.5v2q0 138 -95 235t-236 97t-237 -97.5t-96 -236.5v-2q0 -138 95 -235t236 -97zM553 220
q-62 -54 -136.5 -54t-127 55t-52.5 133v2q0 77 53 133t127.5 56t131.5 -50q9 -7 9 -17t-6.5 -16t-14.5 -6t-17 7q-49 42 -104.5 42t-95 -43.5t-39.5 -104.5v-2q0 -61 40.5 -105t98 -44t106.5 44q8 5 15 5t13 -6t6 -15t-7 -14z" />
    <glyph glyph-name="guillemotleft" unicode="&#xab;" horiz-adv-x="515" 
 />
    <glyph glyph-name="registered" unicode="&#xae;" horiz-adv-x="416" 
d="M331 411.5q-51 -51.5 -123.5 -51.5t-123 51t-50.5 123v1q0 72 51 123.5t123.5 51.5t123 -51t50.5 -123v-1q0 -72 -51 -123.5zM91 417q47 -48 116.5 -48t117 48.5t47.5 117.5v1q0 69 -47 117t-116.5 48t-117 -48.5t-47.5 -117.5v-1q0 -69 47 -117zM260 471q0 -46 19 -46
q5 0 5 5q-2 3 -5 3q-10 0 -10 29t-12.5 43.5t-29.5 18.5q20 6 32.5 22.5t12.5 40.5t-18 42.5t-44 18.5h-67q-4 0 -4 -4v-218q0 -5 4.5 -5t4.5 5v96h61q51 -13 51 -51zM148 531v108h62q23 0 39 -15.5t16 -38t-16 -38.5t-39 -16h-62z" />
    <glyph glyph-name="degree" unicode="&#xb0;" horiz-adv-x="450" 
d="M329.5 455q-42.5 -43 -106 -43t-106.5 43t-43 103v2q0 65 44 105.5t104.5 40.5t105 -42.5t44.5 -103.5v-2q0 -60 -42.5 -103zM223 431q54 0 90.5 38t36.5 89v2q0 51 -37 89.5t-90 38.5t-90 -38.5t-37 -89.5v-2q0 -51 36.5 -89t90.5 -38z" />
    <glyph glyph-name="acute" unicode="&#xb4;" horiz-adv-x="500" 
d="M232 613q-8 -9 -19.5 -14t-11.5 1t4 12l62 93q12 18 24.5 18t16.5 -3q5 -3 5 -12q3 -5 -10 -18z" />
    <glyph glyph-name="cedilla" unicode="&#xb8;" horiz-adv-x="500" 
d="M295 10l-65 -132q-10 -20 -24 -20t-25 8t-11 15t5 16l77 113h43z" />
    <glyph glyph-name="questiondown" unicode="&#xbf;" horiz-adv-x="534" 
d="M227 545q0 12 12 12q5 0 8.5 -3.5t3.5 -8.5v-122q82 -5 140.5 -66t58.5 -147t-62 -148t-149 -62q-58 0 -107 28.5t-76 77.5q-8 10 3 15t17 -3q25 -43 68 -68.5t95 -25.5q77 0 131.5 55t54.5 132.5t-55 132.5t-131 55q-12 0 -12 12v134zM227 688q0 12 12 12t12 -12v-23
q0 -5 -3.5 -8.5t-8.5 -3.5q-12 0 -12 12v23z" />
    <glyph glyph-name="Agrave" unicode="&#xc0;" horiz-adv-x="649" 
d="M64 3q1 0 5 -1q9 0 11 9l67 179h350l67 -179q5 -9 10.5 -8.5t6.5 0.5q12 6 7 17l-252 672q-5 8 -14 9t-12 -9l-252 -672q-5 -12 6 -17zM157 216l165 438l165 -438h-330zM361 812q4 -6 4 -12t-11.5 -1t-19.5 14l-71 77q-13 13 -10 18q0 15 17 15t29 -18z" />
    <glyph glyph-name="Aacute" unicode="&#xc1;" horiz-adv-x="646" 
d="M581 3q-1 0 -6.5 -0.5t-10.5 8.5l-67 179h-350l-67 -179q-2 -9 -11 -9q-4 1 -5 1q-11 5 -6 17l252 672q3 10 12 9t14 -9l252 -672q5 -11 -7 -17zM322 654l-165 -438h330zM319 813q-8 -9 -19.5 -14t-11.5 1t4 12l62 93q12 18 24.5 18t15.5 -3q6 -3 6 -12q3 -5 -10 -18z
" />
    <glyph glyph-name="Acircumflex" unicode="&#xc2;" horiz-adv-x="664" 
d="M65 3q1 0 5 -1q9 0 11 9l67 179h350l67 -179q5 -9 10.5 -8.5t6.5 0.5q12 6 7 17l-252 672q-5 8 -14 9t-12 -9l-252 -672q-5 -12 6 -17zM158 216l165 438l165 -438h-330zM329 894l-69 -76q-18 -18 -25 -18l-14 2q0 6 5 12l72 88q15 18 28 18h8q13 0 28 -18l72 -88
q5 -6 5 -12q0 -4 -5 -3t-10.5 1t-24.5 19z" />
    <glyph glyph-name="Atilde" unicode="&#xc3;" horiz-adv-x="664" 
d="M65 3q1 0 5 -1q9 0 11 9l67 179h350l67 -179q5 -9 10.5 -8.5t6.5 0.5q12 6 7 17l-252 672q-5 8 -14 9t-12 -9l-252 -672q-5 -12 6 -17zM158 216l165 438l165 -438h-330zM212 802q-6 -12 -16 -12q-16 0 -16 13q0 2 5.5 19.5t29.5 36t44 18.5t66 -19t63 -19q31 0 50 43
q0 8 4.5 12.5t8.5 4.5q18 0 18 -17q0 -6 -2 -12q-22 -68 -79 -68q-18 0 -64 19.5t-64 19.5q-31 0 -48 -39z" />
    <glyph glyph-name="Adieresis" unicode="&#xc4;" horiz-adv-x="663" 
d="M65 3q1 0 5 -1q9 0 11 9l67 179h350l67 -179q5 -9 10.5 -8.5t6.5 0.5q12 6 7 17l-252 672q-5 8 -14 9t-12 -9l-252 -672q-5 -12 6 -17zM158 216l165 438l165 -438h-330zM198 837q0 14 10 24t24 10t23.5 -10t9.5 -24t-9.5 -24t-23.5 -10t-24 10t-10 24zM380 837
q0 14 10 24t24 10t24 -10t10 -24t-10 -24t-24 -10t-24 10t-10 24z" />
    <glyph glyph-name="Aring" unicode="&#xc5;" horiz-adv-x="646" 
d="M57 1q-4 1 -5 1q-11 5 -6 17l241 644q-26 7 -42.5 28.5t-16.5 48.5v1q0 35 24 56.5t57 21.5t57 -22.5t24 -55.5v-1q0 -26 -15.5 -47.5t-40.5 -28.5l242 -645q5 -11 -7 -17q-1 0 -6.5 -0.5t-10.5 8.5l-67 179h-350l-67 -179q-2 -9 -11 -9zM268.5 699.5
q16.5 -17.5 41 -17.5t40.5 17.5t16 39.5v1q0 22 -16.5 39.5t-40.5 17.5t-40.5 -17.5t-16.5 -39.5v-1q0 -22 16.5 -39.5zM145 215h330l-165 438z" />
    <glyph glyph-name="AE" unicode="&#xc6;" horiz-adv-x="1045" 
d="M42 19q16 33 399 665q10 16 26 16h497q24 0 24 -14t-24 -14h-433v-303h388q24 0 24 -16t-24 -16h-388v-308h438q24 0 24 -14.5t-24 -14.5h-442q-11 0 -18.5 8t-7.5 18v180h-313l-120 -198q-7 -11 -19.5 -9t-6.5 20zM205 233h296v440h-32z" />
    <glyph glyph-name="Ccedilla" unicode="&#xc7;" horiz-adv-x="771" 
d="M647 97q11 7 19 -1.5t-3 -18.5q-103 -77 -227 -77q-150 1 -256.5 105t-106.5 250.5t106.5 250.5t256.5 104q127 0 227 -77q11 -9 4 -18q-11 -11 -19 -2q-92 71 -212 71q-139 0 -238 -96t-99 -232.5t99 -233t238 -96.5q119 0 211 71zM455 10l-65 -132q-10 -20 -24 -20
t-25 8t-11 15t5 16l77 113h43z" />
    <glyph glyph-name="Egrave" unicode="&#xc8;" horiz-adv-x="593" 
d="M489 0h-373q-12 0 -12 13v674q0 11 12 13h373q12 0 12 -12.5t-12 -12.5h-360v-312h317q12 0 12 -12.5t-12 -12.5h-317v-313h360q12 0 12 -12.5t-12 -12.5zM330 812q4 -6 4 -12t-11.5 -1t-19.5 14l-71 77q-13 13 -10 18q0 15 17 15t29 -18z" />
    <glyph glyph-name="Eacute" unicode="&#xc9;" horiz-adv-x="593" 
d="M489 0h-373q-12 0 -12 13v674q0 11 12 13h373q12 0 12 -12.5t-12 -12.5h-360v-312h317q12 0 12 -12.5t-12 -12.5h-317v-313h360q12 0 12 -12.5t-12 -12.5zM282 813q-8 -9 -19.5 -14t-11.5 1t4 12l62 93q12 18 24.5 18t16.5 -3q5 -3 5 -12q3 -5 -10 -18z" />
    <glyph glyph-name="Ecircumflex" unicode="&#xca;" horiz-adv-x="593" 
d="M489 0h-373q-12 0 -12 13v674q0 11 12 13h373q12 0 12 -12.5t-12 -12.5h-360v-312h317q12 0 12 -12.5t-12 -12.5h-317v-313h360q12 0 12 -12.5t-12 -12.5zM302 894l-69 -76q-18 -18 -25 -18l-14 2q0 6 5 12l72 88q15 18 28 18h8q13 0 28 -18l72 -88q5 -6 5 -12
q0 -4 -5 -3t-10.5 1t-24.5 19z" />
    <glyph glyph-name="Edieresis" unicode="&#xcb;" horiz-adv-x="670" 
d="M116 0h373q12 0 12 12.5t-12 12.5h-360v313h317q12 0 12 12.5t-12 12.5h-317v312h360q12 0 12 12.5t-12 12.5h-373q-12 -2 -12 -13v-674q0 -13 12 -13zM176 837q0 14 10 24t24 10t23.5 -10t9.5 -24t-9.5 -24t-23.5 -10t-24 10t-10 24zM358 837q0 14 10 24t24 10t24 -10
t10 -24t-10 -24t-24 -10t-24 10t-10 24z" />
    <glyph glyph-name="Igrave" unicode="&#xcc;" horiz-adv-x="348" 
d="M193 13q0 -13 12.5 -13t12.5 13v674q0 13 -12.5 13t-12.5 -13v-674zM259 812q4 -6 4 -12t-11.5 -1t-19.5 14l-71 77q-13 13 -10 18q0 15 17 15t29 -18z" />
    <glyph glyph-name="Iacute" unicode="&#xcd;" horiz-adv-x="274" 
d="M128 687q0 13 12.5 13t12.5 -13v-674q0 -13 -12.5 -13t-12.5 13v674zM114 813q-8 -9 -19.5 -14t-11.5 1t4 12l62 93q12 18 24.5 18t16.5 -3q5 -3 5 -12q3 -5 -10 -18z" />
    <glyph glyph-name="Icircumflex" unicode="&#xce;" horiz-adv-x="274" 
d="M98 13q0 -13 12.5 -13t12.5 13v674q0 13 -12.5 13t-12.5 -13v-674zM109 894l-69 -76q-18 -18 -25 -18l-14 2q0 6 5 12l72 88q15 18 28 18h8q13 0 28 -18l72 -88q5 -6 5 -12q-5 -3 -13 -2.5t-27 19.5z" />
    <glyph glyph-name="Idieresis" unicode="&#xcf;" horiz-adv-x="274" 
d="M105 13q0 -13 12.5 -13t12.5 13v674q0 13 -12.5 13t-12.5 -13v-674zM-8 837q0 14 10 24t24 10t23.5 -10t9.5 -24t-9.5 -24t-23.5 -10t-24 10t-10 24zM174 837q0 14 10 24t24 10t24 -10t10 -24t-10 -24t-24 -10t-24 10t-10 24z" />
    <glyph glyph-name="Eth" unicode="&#xd0;" horiz-adv-x="812" 
d="M165 13v330h-100q-10 0 -10 10t10 10h100v324q0 13 13 13h134q145 0 247.5 -102.5t102.5 -247.5t-102.5 -247.5t-247.5 -102.5h-134q-13 0 -13 13zM190 25h122q135 2 229.5 96.5t95.5 229.5q-1 134 -95.5 229t-229.5 95h-122v-312h103q9 0 9 -10t-9 -10h-103v-318z" />
    <glyph glyph-name="Ntilde" unicode="&#xd1;" horiz-adv-x="790" 
d="M589 9q0 -1 1 -1q3 -8 12 -8q12 0 12 13v669q0 13 -12 13q-5 0 -9 -4t-4 -9v-630l-462 642q-7 8 -18 2q-5 -5 -5 -11v-672q0 -5 4 -9t9 -4q12 0 12 13v635zM248 802q-6 -12 -16 -12q-16 0 -16 13q0 2 5.5 19.5t29.5 36t44.5 18.5t66.5 -19t62 -19q31 0 50 43
q0 8 4.5 12.5t8.5 4.5q18 0 18 -17q0 -6 -2 -12q-22 -68 -79 -68q-18 0 -64 19.5t-64 19.5q-31 0 -48 -39z" />
    <glyph glyph-name="Ograve" unicode="&#xd2;" horiz-adv-x="850" 
d="M173 604.5q99 105.5 240.5 105.5t241 -105.5t101.5 -255.5q-2 -151 -101 -256.5t-241 -105.5t-241 105.5t-100 256.5q1 150 100 255.5zM414 14q129 2 221 99.5t93 235.5q-1 139 -93 237t-221 98t-221.5 -98t-92.5 -236.5t92 -236t222 -99.5zM468 812q4 -6 4 -12t-11.5 -1
t-19.5 14l-71 77q-13 13 -10 18q0 15 17 15t29 -18z" />
    <glyph glyph-name="Oacute" unicode="&#xd3;" horiz-adv-x="850" 
d="M173 604.5q99 105.5 240.5 105.5t241 -105.5t101.5 -255.5q-2 -151 -101 -256.5t-241 -105.5t-241 105.5t-100 256.5q1 150 100 255.5zM414 14q129 2 221 99.5t93 235.5q-1 139 -93 237t-221 98t-221.5 -98t-92.5 -236.5t92 -236t222 -99.5zM389 813q-8 -9 -19.5 -14
t-11.5 1t4 12l62 93q12 18 24.5 18t15.5 -3q6 -3 6 -12q3 -5 -10 -18z" />
    <glyph glyph-name="Ocircumflex" unicode="&#xd4;" horiz-adv-x="850" 
d="M173 604.5q99 105.5 240.5 105.5t241 -105.5t101.5 -255.5q-2 -151 -101 -256.5t-241 -105.5t-241 105.5t-100 256.5q1 150 100 255.5zM414 14q129 2 221 99.5t93 235.5q-1 139 -93 237t-221 98t-221.5 -98t-92.5 -236.5t92 -236t222 -99.5zM414 894l-69 -76
q-18 -18 -25 -18l-14 2q0 6 5 12l72 88q15 18 28 18h8q13 0 28 -18l72 -88q5 -6 5 -12q0 -4 -5 -3t-10.5 1t-24.5 19z" />
    <glyph glyph-name="Otilde" unicode="&#xd5;" horiz-adv-x="850" 
d="M73 349q1 -151 100 -256.5t241 -105.5t241 105.5t101 256.5q-2 150 -101.5 255.5t-241 105.5t-240.5 -105.5t-100 -255.5zM192 113.5q-92 97.5 -92 236t92.5 236.5t221.5 98t221 -98t93 -237q-1 -138 -93 -235.5t-221 -99.5q-130 2 -222 99.5zM303 802q-6 -12 -16 -12
q-16 0 -16 13q0 2 5.5 19.5t29.5 36t44 18.5t66 -19t63 -19q31 0 50 43q0 8 4.5 12.5t8.5 4.5q18 0 18 -17q0 -6 -2 -12q-22 -68 -79 -68q-18 0 -64 19.5t-64 19.5q-31 0 -48 -39z" />
    <glyph glyph-name="Odieresis" unicode="&#xd6;" horiz-adv-x="850" 
d="M73 349q1 -151 100 -256.5t241 -105.5t241 105.5t101 256.5q-2 150 -101.5 255.5t-241 105.5t-240.5 -105.5t-100 -255.5zM192 113.5q-92 97.5 -92 236t92.5 236.5t221.5 98t221 -98t93 -237q-1 -138 -93 -235.5t-221 -99.5q-130 2 -222 99.5zM289 837q0 14 10 24t24 10
t23.5 -10t9.5 -24t-9.5 -24t-23.5 -10t-24 10t-10 24zM471 837q0 14 10 24t24 10t24 -10t10 -24t-10 -24t-24 -10t-24 10t-10 24z" />
    <glyph glyph-name="multiply" unicode="&#xd7;" horiz-adv-x="620" 
d="M512 520l-169 -167l168 -166q9 -9 9 -20t-7 -18t-18 -7t-20 9l-166 168l-167 -169q-8 -8 -18 -8t-17 7t-7 17t8 18l169 167l-168 166q-9 9 -9 20t7 18t18 7t20 -9l166 -168l167 169q8 8 18 8t17 -7t7 -17t-8 -18z" />
    <glyph glyph-name="Oslash" unicode="&#xd8;" horiz-adv-x="850" 
d="M101 32l604 626q3 4 8.5 4.5t9.5 -3.5q10 -8 2 -18l-607 -627q-5 -6 -11 -4.5t-6 4.5q-9 7 0 18zM173 604.5q99 105.5 240.5 105.5t241 -105.5t101.5 -255.5q-2 -151 -101 -256.5t-241 -105.5t-241 105.5t-100 256.5q1 150 100 255.5zM414 14q129 2 221 99.5t93 235.5
q-1 139 -93 237t-221 98t-221.5 -98t-92.5 -236.5t92 -236t222 -99.5z" />
    <glyph glyph-name="Ugrave" unicode="&#xd9;" horiz-adv-x="760" 
d="M93 281q0 -117 82 -199t198 -82t198.5 82t82.5 199v406q0 5 -4 9t-9 4q-13 0 -13 -13v-406q-1 -106 -75.5 -180t-179.5 -76q-106 2 -180.5 76t-74.5 180v406q0 13 -12.5 13t-12.5 -13v-406zM372 812q4 -6 4 -12t-11.5 -1t-19.5 14l-71 77q-13 13 -10 18q0 15 17 15
t29 -18z" />
    <glyph glyph-name="Uacute" unicode="&#xda;" horiz-adv-x="760" 
d="M93 281v406q0 13 12.5 13t12.5 -13v-406q0 -106 74.5 -180t180.5 -76q105 2 179.5 76t75.5 180v406q0 13 13 13q5 0 9 -4t4 -9v-406q0 -117 -82.5 -199t-198.5 -82t-198 82t-82 199zM330 813q-8 -9 -19.5 -14t-11.5 1t4 12l62 93q12 18 24.5 18t16.5 -3q5 -3 5 -12
q3 -5 -10 -18z" />
    <glyph glyph-name="Ucircumflex" unicode="&#xdb;" horiz-adv-x="760" 
d="M93 281q0 -117 82 -199t198 -82t198.5 82t82.5 199v406q0 5 -4 9t-9 4q-13 0 -13 -13v-406q-1 -106 -75.5 -180t-179.5 -76q-106 2 -180.5 76t-74.5 180v406q0 13 -12.5 13t-12.5 -13v-406zM338 894l-69 -76q-18 -18 -25 -18l-14 2q0 6 5 12l72 88q15 18 28 18h8
q13 0 28 -18l72 -88q5 -6 5 -12q0 -4 -5 -3t-10.5 1t-24.5 19z" />
    <glyph glyph-name="Udieresis" unicode="&#xdc;" horiz-adv-x="760" 
d="M93 281q0 -117 82 -199t198 -82t198.5 82t82.5 199v406q0 5 -4 9t-9 4q-13 0 -13 -13v-406q-1 -106 -75.5 -180t-179.5 -76q-106 2 -180.5 76t-74.5 180v406q0 13 -12.5 13t-12.5 -13v-406zM248 837q0 14 10 24t24 10t23.5 -10t9.5 -24t-9.5 -24t-23.5 -10t-24 10t-10 24
zM430 837q0 14 10 24t24 10t24 -10t10 -24t-10 -24t-24 -10t-24 10t-10 24z" />
    <glyph glyph-name="Yacute" unicode="&#xdd;" horiz-adv-x="716" 
d="M304 13v329l-245 337q-10 10 2 16.5t18 -1.5l238 -327l237 327q5 5 12.5 3.5t10.5 -7t-1 -11.5l-247 -337v-329q0 -13 -12.5 -13t-12.5 13zM313 813q-8 -9 -19.5 -14t-11.5 1t4 12l62 93q12 18 24.5 18t15.5 -3q6 -3 6 -12q3 -5 -10 -18z" />
    <glyph glyph-name="germandbls" unicode="&#xdf;" horiz-adv-x="620" 
d="M107 -4q-13 0 -13 14v490q0 106 61 173t154.5 64t148.5 -52t55 -123v-2q0 -67 -51.5 -116t-121.5 -74q91 -16 155 -61t63 -124t-71.5 -131t-179.5 -56q-21 0 -21 16q0 19 20 21q92 5 154 45t62 106t-60.5 103.5t-150.5 49.5q-25 3 -25 24q0 18 20 25q175 61 175 174
q0 57 -51 101.5t-121 44.5t-126.5 -61t-56.5 -147v-480q0 -24 -19 -24z" />
    <glyph glyph-name="agrave" unicode="&#xe0;" horiz-adv-x="574" 
d="M500 477q0 13 12.5 13t12.5 -13v-464q0 -13 -12.5 -13t-12.5 13v122q-29 -61 -84.5 -98t-121.5 -37q-96 0 -163.5 72t-67.5 173t67.5 173t163.5 72q66 0 121.5 -37t84.5 -98v122zM294 25q85 0 145.5 64.5t60.5 155.5t-60.5 155t-145.5 64t-145.5 -64t-60.5 -155
t60.5 -155.5t145.5 -64.5zM348 587q4 -6 4 -11.5t-11.5 -1t-19.5 13.5l-71 77q-13 13 -10 18q0 15 17 15t29 -18z" />
    <glyph glyph-name="aacute" unicode="&#xe1;" horiz-adv-x="574" 
d="M500 477q0 13 12.5 13t12.5 -13v-464q0 -13 -12.5 -13t-12.5 13v122q-29 -61 -84.5 -98t-121.5 -37q-96 0 -163.5 72t-67.5 173t67.5 173t163.5 72q66 0 121.5 -37t84.5 -98v122zM294 25q85 0 145.5 64.5t60.5 155.5t-60.5 155t-145.5 64t-145.5 -64t-60.5 -155
t60.5 -155.5t145.5 -64.5zM269 588q-8 -9 -19.5 -13.5t-11.5 1t4 11.5l62 93q12 18 24.5 18t15.5 -2q6 -4 6 -13q3 -5 -10 -18z" />
    <glyph glyph-name="acircumflex" unicode="&#xe2;" horiz-adv-x="574" 
d="M500 477q0 13 12.5 13t12.5 -13v-464q0 -13 -12.5 -13t-12.5 13v122q-29 -61 -84.5 -98t-121.5 -37q-96 0 -163.5 72t-67.5 173t67.5 173t163.5 72q66 0 121.5 -37t84.5 -98v122zM294 25q85 0 145.5 64.5t60.5 155.5t-60.5 155t-145.5 64t-145.5 -64t-60.5 -155
t60.5 -155.5t145.5 -64.5zM321 667l-69 -76q-18 -18 -25 -18l-14 2q0 6 5 12l72 88q15 18 28 18h8q13 0 28 -18l72 -88q5 -6 5 -12q0 -4 -5 -3t-10.5 1t-24.5 19z" />
    <glyph glyph-name="atilde" unicode="&#xe3;" horiz-adv-x="574" 
d="M500 477q0 13 12.5 13t12.5 -13v-464q0 -13 -12.5 -13t-12.5 13v122q-29 -61 -84.5 -98t-121.5 -37q-96 0 -163.5 72t-67.5 173t67.5 173t163.5 72q66 0 121.5 -37t84.5 -98v122zM294 25q85 0 145.5 64.5t60.5 155.5t-60.5 155t-145.5 64t-145.5 -64t-60.5 -155
t60.5 -155.5t145.5 -64.5zM183 582q-6 -12 -16 -12q-16 0 -16 13q0 2 5.5 19.5t29.5 36t44 18.5t66 -19t63 -19q31 0 50 43q0 8 4.5 12.5t8.5 4.5q18 0 18 -17q0 -6 -2 -12q-22 -68 -79 -68q-18 0 -64 19.5t-64 19.5q-31 0 -48 -39z" />
    <glyph glyph-name="adieresis" unicode="&#xe4;" horiz-adv-x="574" 
d="M500 477q0 13 12.5 13t12.5 -13v-464q0 -13 -12.5 -13t-12.5 13v122q-29 -61 -84.5 -98t-121.5 -37q-96 0 -163.5 72t-67.5 173t67.5 173t163.5 72q66 0 121.5 -37t84.5 -98v122zM294 25q85 0 145.5 64.5t60.5 155.5t-60.5 155t-145.5 64t-145.5 -64t-60.5 -155
t60.5 -155.5t145.5 -64.5zM169 613q0 14 10 24t24 10t23.5 -10t9.5 -24t-9.5 -24t-23.5 -10t-24 10t-10 24zM351 613q0 14 10 24t24 10t24 -10t10 -24t-10 -24t-24 -10t-24 10t-10 24z" />
    <glyph glyph-name="aring" unicode="&#xe5;" horiz-adv-x="574" 
d="M341 593.5q-23 -23.5 -57.5 -23.5t-58 23.5t-23.5 56.5v1q0 35 24 56.5t57 21.5t57 -22.5t24 -55.5v-1q0 -33 -23 -56.5zM283 592q24 0 40.5 17.5t16.5 39.5v1q0 22 -16.5 39.5t-40.5 17.5t-40.5 -17.5t-16.5 -39.5v-1q0 -22 16.5 -39.5t40.5 -17.5zM488 477
q0 13 12.5 13t12.5 -13v-464q0 -13 -12.5 -13t-12.5 13v122q-29 -61 -84.5 -98t-121.5 -37q-96 0 -163.5 72t-67.5 173t67.5 173t163.5 72q66 0 121.5 -37t84.5 -98v122zM282 25q85 0 145.5 64.5t60.5 155.5t-60.5 155t-145.5 64t-145.5 -64t-60.5 -155t60.5 -155.5
t145.5 -64.5z" />
    <glyph glyph-name="ae" unicode="&#xe6;" horiz-adv-x="954" 
d="M967 263v-4q-2 -12 -12 -12h-435v-3q0 -89 62 -153.5t150 -65.5q55 0 101.5 27t74.5 73q6 12 20 1q7 -7 1 -15q-32 -50 -84.5 -80.5t-118.5 -30t-125 42.5t-87 108v-138q0 -13 -12.5 -13t-12.5 13v122q-29 -61 -84.5 -98t-122.5 -37q-96 0 -163.5 72t-67.5 173
t67.5 173.5t163.5 72.5q67 0 122.5 -37t84.5 -98v122q0 13 12.5 13t12.5 -13v-140q27 68 86 109.5t132 41.5q93 0 160.5 -65t74.5 -161zM136.5 89.5q60.5 -64.5 146 -64.5t146 64.5t60.5 155.5t-60.5 155.5t-146 64.5t-146 -64.5t-60.5 -155.5t60.5 -155.5zM521 271h421
q-10 82 -70 137t-140.5 55t-140.5 -55t-70 -137z" />
    <glyph glyph-name="ccedilla" unicode="&#xe7;" horiz-adv-x="571" 
d="M58 245q0 101 74 173t170.5 72t163.5 -53q8 -8 1.5 -17.5t-17.5 -2.5q-62 48 -148.5 48t-152.5 -64.5t-66 -155.5t66 -155.5t161 -64.5q76 0 140 49q9 6 16.5 -3.5t-0.5 -17.5q-69 -53 -156 -53q-104 1 -178 72.5t-74 172.5zM336 10l-65 -132q-10 -20 -24 -20t-25 8
t-11 15t5 16l77 113h43z" />
    <glyph glyph-name="egrave" unicode="&#xe8;" horiz-adv-x="609" 
d="M531 264v-4q-2 -12 -12 -12h-436v-3q0 -90 62.5 -154.5t150.5 -65.5q55 0 101.5 27t74.5 73q7 10 17.5 3t3.5 -17q-32 -50 -84.5 -80.5t-112.5 -30.5q-98 1 -167 72.5t-71 172.5q2 102 71 173.5t164.5 71.5t163 -65t74.5 -161zM436 409q-60 55 -140.5 55t-141 -55
t-70.5 -137h422q-10 82 -70 137zM348 587q4 -6 4 -12t-11.5 -1t-19.5 14l-71 77q-13 13 -10 18q0 15 17 15t29 -18z" />
    <glyph glyph-name="eacute" unicode="&#xe9;" horiz-adv-x="609" 
d="M531 264v-4q-2 -12 -12 -12h-436v-3q0 -90 62.5 -154.5t150.5 -65.5q55 0 101.5 27t74.5 73q7 10 17.5 3t3.5 -17q-32 -50 -84.5 -80.5t-112.5 -30.5q-98 1 -167 72.5t-71 172.5q2 102 71 173.5t164.5 71.5t163 -65t74.5 -161zM436 409q-60 55 -140.5 55t-141 -55
t-70.5 -137h422q-10 82 -70 137zM268 588q-8 -9 -19.5 -13.5t-11.5 1t4 11.5l62 93q12 18 24.5 18t16.5 -2q5 -4 5 -13q3 -5 -10 -18z" />
    <glyph glyph-name="ecircumflex" unicode="&#xea;" horiz-adv-x="609" 
d="M531 264v-4q-2 -12 -12 -12h-436v-3q0 -90 62.5 -154.5t150.5 -65.5q55 0 101.5 27t74.5 73q7 10 17.5 3t3.5 -17q-32 -50 -84.5 -80.5t-112.5 -30.5q-98 1 -167 72.5t-71 172.5q2 102 71 173.5t164.5 71.5t163 -65t74.5 -161zM436 409q-60 55 -140.5 55t-141 -55
t-70.5 -137h422q-10 82 -70 137zM294 667l-69 -76q-18 -18 -25 -18l-14 2q0 6 5 12l72 88q15 18 28 18h8q13 0 28 -18l72 -88q5 -6 5 -12q0 -4 -5 -3t-10.5 1t-24.5 19z" />
    <glyph glyph-name="edieresis" unicode="&#xeb;" horiz-adv-x="584" 
d="M534 260v4q-7 96 -74.5 161t-163 65t-164.5 -71.5t-71 -173.5q2 -101 71 -172.5t167 -72.5q60 0 112.5 30.5t84.5 80.5q4 7 0.5 13t-10 6t-11.5 -5q-28 -46 -74.5 -73t-101.5 -27q-88 1 -150.5 65.5t-62.5 154.5v3h436q10 0 12 12zM157.5 409q60.5 55 141 55t140.5 -55
t70 -137h-422q10 82 70.5 137zM172 604q0 14 10 24t24 10t23.5 -10t9.5 -24t-9.5 -24t-23.5 -10t-24 10t-10 24zM354 604q0 14 10 24t24 10t24 -10t10 -24t-10 -24t-24 -10t-24 10t-10 24z" />
    <glyph glyph-name="igrave" unicode="&#xec;" horiz-adv-x="281" 
d="M95 13q0 -13 13 -13q5 0 8.5 4t3.5 9v465q0 12 -12.5 12t-12.5 -12v-465zM161 587q4 -6 4 -11.5t-11.5 -1t-19.5 13.5l-71 77q-13 13 -10 18q0 15 17 15t29 -18z" />
    <glyph glyph-name="iacute" unicode="&#xed;" horiz-adv-x="281" 
d="M95 13v465q0 12 12.5 12t12.5 -12v-465q0 -5 -3.5 -9t-8.5 -4q-13 0 -13 13zM81 588q-8 -9 -19.5 -13.5t-11.5 1t4 11.5l62 93q12 18 24.5 18t15.5 -2q6 -4 6 -13q3 -5 -10 -18z" />
    <glyph glyph-name="icircumflex" unicode="&#xee;" horiz-adv-x="281" 
d="M106 13q0 -13 13 -13q5 0 8.5 4t3.5 9v465q0 12 -12.5 12t-12.5 -12v-465zM117 667l-69 -76q-18 -18 -25 -18l-14 2q0 6 5 12l72 88q15 18 28 18h8q13 0 28 -18l72 -88q5 -6 5 -12q-5 -3 -13 -2.5t-27 19.5z" />
    <glyph glyph-name="idieresis" unicode="&#xef;" horiz-adv-x="281" 
d="M107 13q0 -13 13 -13q5 0 8.5 4t3.5 9v465q0 12 -12.5 12t-12.5 -12v-465zM-6 604q0 14 10 24t24 10t23.5 -10t9.5 -24t-9.5 -24t-23.5 -10t-24 10t-10 24zM176 604q0 14 10 24t24 10t24 -10t10 -24t-10 -24t-24 -10t-24 10t-10 24z" />
    <glyph glyph-name="ntilde" unicode="&#xf1;" 
d="M100 2q2 -2 3 -2h4q12 0 12 13v279q0 72 51 122.5t122 50.5t121.5 -50.5t50.5 -122.5v-279q0 -13 12.5 -13t12.5 13v279q0 82 -58 140t-139 58q-55 0 -101 -28t-72 -74v90q0 12 -12.5 12t-12.5 -12v-467q0 -3 2 -5q0 -4 4 -4zM179 582q-6 -12 -16 -12q-16 0 -16 13
q0 2 5.5 19.5t29.5 36t44 18.5t66 -19t63 -19q31 0 50 43q0 8 4.5 12.5t8.5 4.5q18 0 18 -17q0 -6 -2 -12q-22 -68 -79 -68q-18 0 -64 19.5t-64 19.5q-31 0 -48 -39z" />
    <glyph glyph-name="ograve" unicode="&#xf2;" horiz-adv-x="640" 
d="M58 245q0 -101 67.5 -173t163.5 -72t164 72t68 173t-68 173t-164 72t-163.5 -72t-67.5 -173zM83 245q0 91 60.5 155.5t145.5 64.5t146 -64.5t61 -155.5t-61 -155.5t-146 -64.5t-145.5 64.5t-60.5 155.5zM343 587q4 -6 4 -11.5t-11.5 -1t-19.5 13.5l-71 77q-13 13 -10 18
q0 15 17 15t29 -18z" />
    <glyph glyph-name="oacute" unicode="&#xf3;" horiz-adv-x="640" 
d="M289 490q96 0 164 -72t68 -173t-68 -173t-164 -72t-163.5 72t-67.5 173t67.5 173t163.5 72zM289 25q85 0 146 64.5t61 155.5t-61 155.5t-146 64.5t-145.5 -64.5t-60.5 -155.5t60.5 -155.5t145.5 -64.5zM262 588q-8 -9 -19.5 -13.5t-11.5 1t4 11.5l62 93q12 18 24.5 18
t16.5 -2q5 -4 5 -13q3 -5 -10 -18z" />
    <glyph glyph-name="ocircumflex" unicode="&#xf4;" horiz-adv-x="640" 
d="M58 245q0 -101 67.5 -173t163.5 -72t164 72t68 173t-68 173t-164 72t-163.5 -72t-67.5 -173zM83 245q0 91 60.5 155.5t145.5 64.5t146 -64.5t61 -155.5t-61 -155.5t-146 -64.5t-145.5 64.5t-60.5 155.5zM287 667l-69 -76q-18 -18 -25 -18l-14 2q0 6 5 12l72 88
q15 18 28 18h8q13 0 28 -18l72 -88q5 -6 5 -12q0 -4 -5 -3t-10.5 1t-24.5 19z" />
    <glyph glyph-name="otilde" unicode="&#xf5;" horiz-adv-x="640" 
d="M58 245q0 -101 67.5 -173t163.5 -72t164 72t68 173t-68 173t-164 72t-163.5 -72t-67.5 -173zM83 245q0 91 60.5 155.5t145.5 64.5t146 -64.5t61 -155.5t-61 -155.5t-146 -64.5t-145.5 64.5t-60.5 155.5zM177 582q-6 -12 -16 -12q-16 0 -16 13q0 2 5.5 19.5t29.5 36
t44 18.5t66.5 -19t62.5 -19q31 0 50 43q0 8 4.5 12.5t8.5 4.5q18 0 18 -17q0 -6 -2 -12q-22 -68 -79 -68q-18 0 -64 19.5t-64 19.5q-31 0 -48 -39z" />
    <glyph glyph-name="odieresis" unicode="&#xf6;" horiz-adv-x="640" 
d="M58 245q0 -101 67.5 -173t163.5 -72t164 72t68 173t-68 173t-164 72t-163.5 -72t-67.5 -173zM83 245q0 91 60.5 155.5t145.5 64.5t146 -64.5t61 -155.5t-61 -155.5t-146 -64.5t-145.5 64.5t-60.5 155.5zM164 604q0 14 10 24t24 10t23.5 -10t9.5 -24t-9.5 -24t-23.5 -10
t-24 10t-10 24zM346 604q0 14 10 24t24 10t24 -10t10 -24t-10 -24t-24 -10t-24 10t-10 24z" />
    <glyph glyph-name="divide" unicode="&#xf7;" horiz-adv-x="620" 
d="M88 328h444q10 0 17 7t7 17t-7 17t-17 7h-444q-10 0 -17 -7t-7 -17t7 -17t17 -7zM274 547q0 19 13.5 32.5t32.5 13.5t32.5 -13.5t13.5 -32.5t-13.5 -32.5t-32.5 -13.5t-32.5 13.5t-13.5 32.5zM274 158q0 19 13.5 32.5t32.5 13.5t32.5 -13.5t13.5 -32.5t-13.5 -32.5
t-32.5 -13.5t-32.5 13.5t-13.5 32.5z" />
    <glyph glyph-name="oslash" unicode="&#xf8;" horiz-adv-x="640" 
d="M81 8l419 461q8 8 17.5 0t1.5 -17l-422 -462q-3 -8 -17 -1q-9 9 1 19zM289 490q96 0 164 -72t68 -173t-68 -173t-164 -72t-163.5 72t-67.5 173t67.5 173t163.5 72zM289 25q85 0 146 64.5t61 155.5t-61 155.5t-146 64.5t-145.5 -64.5t-60.5 -155.5t60.5 -155.5
t145.5 -64.5z" />
    <glyph glyph-name="ugrave" unicode="&#xf9;" 
d="M83 477q0 13 13 13q5 0 8.5 -4t3.5 -9v-279q0 -72 50 -122.5t121 -50.5t121.5 50.5t50.5 122.5v279q0 5 4 9t9 4q13 0 13 -13v-279q0 -82 -58 -140t-139.5 -58t-139 58t-57.5 140v279zM301 587q4 -6 4 -12t-11.5 -1t-19.5 14l-71 77q-13 13 -10 18q0 15 17 15t29 -18z
" />
    <glyph glyph-name="uacute" unicode="&#xfa;" 
d="M83 477q0 13 13 13q5 0 8.5 -4t3.5 -9v-279q0 -72 50 -122.5t121 -50.5t121.5 50.5t50.5 122.5v279q0 5 4 9t9 4q13 0 13 -13v-279q0 -82 -58 -140t-139.5 -58t-139 58t-57.5 140v279zM259 588q-8 -9 -19.5 -13.5t-11.5 1t4 11.5l62 93q12 18 24.5 18t15.5 -2q6 -4 6 -13
q3 -5 -10 -18z" />
    <glyph glyph-name="ucircumflex" unicode="&#xfb;" 
d="M83 477q0 13 13 13q5 0 8.5 -4t3.5 -9v-279q0 -72 50 -122.5t121 -50.5t121.5 50.5t50.5 122.5v279q0 5 4 9t9 4q13 0 13 -13v-279q0 -82 -58 -140t-139.5 -58t-139 58t-57.5 140v279zM267 667l-69 -76q-18 -18 -25 -18l-14 2q0 6 5 12l72 88q15 18 28 18h8q13 0 28 -18
l72 -88q5 -6 5 -12q0 -4 -5 -3t-10.5 1t-24.5 19z" />
    <glyph glyph-name="udieresis" unicode="&#xfc;" 
d="M83 198q0 -82 57.5 -140t139 -58t139.5 58t58 140v279q0 13 -13 13q-5 0 -9 -4t-4 -9v-279q0 -72 -50.5 -122.5t-121.5 -50.5t-121 50.5t-50 122.5v279q0 5 -3.5 9t-8.5 4q-13 0 -13 -13v-279zM156 604q0 14 10 24t24 10t23.5 -10t9.5 -24t-9.5 -24t-23.5 -10t-24 10
t-10 24zM338 604q0 14 10 24t24 10t24 -10t10 -24t-10 -24t-24 -10t-24 10t-10 24z" />
    <glyph glyph-name="yacute" unicode="&#xfd;" horiz-adv-x="588" 
d="M418 479q0 4 4 7.5t9 3.5h2h1l2 -1q7 -7 7 -12v-449q0 -95 -67 -162.5t-163 -67.5q-52 0 -100 24q-12 5 -5 17q4 11 15 6q44 -22 90 -22q85 0 145 60t60 145v74q-24 -46 -69.5 -73t-99.5 -27q-82 0 -139.5 57.5t-57.5 138.5v279q0 13 13 13q5 0 8.5 -4t3.5 -9v-279
q0 -71 50.5 -121t120 -50t118.5 48t52 116v288zM260 588q-8 -9 -19.5 -14t-11.5 1t4 12l62 93q12 18 24.5 18t16.5 -3q5 -3 5 -12q3 -5 -10 -18z" />
    <glyph glyph-name="ydieresis" unicode="&#xff;" horiz-adv-x="588" 
d="M418 479q0 4 4 7.5t9 3.5h2h1l2 -1q7 -7 7 -12v-449q0 -95 -67 -162.5t-163 -67.5q-52 0 -100 24q-12 5 -5 17q4 11 15 6q44 -22 90 -22q85 0 145 60t60 145v74q-24 -46 -69.5 -73t-99.5 -27q-82 0 -139.5 57.5t-57.5 138.5v279q0 13 13 13q5 0 8.5 -4t3.5 -9v-279
q0 -71 50.5 -121t120 -50t118.5 48t52 116v288zM121 604q0 14 10 24t24 10t23.5 -10t9.5 -24t-9.5 -24t-23.5 -10t-24 10t-10 24zM303 604q0 14 10 24t24 10t24 -10t10 -24t-10 -24t-24 -10t-24 10t-10 24z" />
    <glyph glyph-name="quotedblleft" unicode="&#x201c;" horiz-adv-x="410" 
d="M351 688q0 -8 -8 -13q-51 -28 -47 -77q27 -7 27 -35v-21q0 -14 -9.5 -23.5t-23.5 -9.5t-23.5 9.5t-9.5 23.5v25q0 77 29.5 106.5t47 29.5t17.5 -15zM171 688q0 -8 -8 -13q-51 -28 -47 -77q27 -7 27 -35v-21q0 -14 -9.5 -23.5t-23.5 -9.5t-23.5 9.5t-9.5 23.5v25
q0 77 29.5 106.5t47 29.5t17.5 -15z" />
    <glyph glyph-name="quotedblright" unicode="&#x201d;" horiz-adv-x="410" 
d="M59 525q0 8 8 13q51 28 47 77q-27 7 -27 35v21q0 13 9.5 23t23.5 10t23.5 -10t9.5 -23v-25q0 -77 -29.5 -106.5t-47 -29.5t-17.5 15zM239 525q0 8 8 13q51 28 47 77q-27 7 -27 35v21q0 13 9.5 23t23.5 10t23.5 -10t9.5 -23v-25q0 -77 -29.5 -106.5t-47 -29.5t-17.5 15z
" />
    <glyph glyph-name="quotesinglbase" unicode="&#x201a;" horiz-adv-x="230" 
 />
    <glyph glyph-name="quoteleft" unicode="&#x2018;" horiz-adv-x="230" 
d="M171 688q0 -8 -8 -13q-51 -28 -47 -77q27 -7 27 -35v-21q0 -14 -9.5 -23.5t-23.5 -9.5t-23.5 9.5t-9.5 23.5v25q0 77 29.5 106.5t47 29.5t17.5 -15z" />
    <glyph glyph-name="quoteright" unicode="&#x2019;" horiz-adv-x="230" 
d="M59 525q0 8 8 13q51 28 47 77q-27 7 -27 35v21q0 13 9.5 23t23.5 10t23.5 -10t9.5 -23v-25q0 -77 -29.5 -106.5t-47 -29.5t-17.5 15z" />
    <glyph glyph-name="tilde" unicode="&#x2dc;" horiz-adv-x="500" 
d="M137 602q-6 -12 -16 -12q-16 0 -16 13q0 2 5.5 19.5t29.5 36t44 18.5t66 -19t63 -19q31 0 50 43q0 8 4.5 12.5t8.5 4.5q18 0 18 -17q0 -6 -2 -12q-22 -68 -79 -68q-18 0 -64 19.5t-64 19.5q-31 0 -48 -39z" />
    <glyph glyph-name="circumflex" unicode="&#x2c6;" horiz-adv-x="500" 
d="M249 694l-69 -76q-18 -18 -25 -18l-14 2q0 6 5 12l72 88q15 18 28 18h8q13 0 28 -18l72 -88q5 -6 5 -12q0 -4 -5 -3t-10.5 1t-24.5 19z" />
    <glyph glyph-name="Ydieresis" unicode="&#x178;" horiz-adv-x="716" 
d="M196 777q0 14 10 24t24 10t24 -10t10 -24t-10 -24t-24 -10t-24 10t-10 24zM377 777q0 14 10 24t24 10t24 -10t10 -24t-10 -24t-24 -10t-24 10t-10 24zM304 13q0 -13 12.5 -13t12.5 13v329l247 337q4 5 0.5 11.5t-10 7.5t-12.5 -4l-237 -327l-238 327q-8 10 -17.5 1
t-2.5 -16l245 -337v-329z" />
    <glyph glyph-name="trademark" unicode="&#x2122;" horiz-adv-x="690" 
d="M128 404v286h-101q-5 0 -5 5t5 5h210q6 0 6 -5t-6 -5h-99v-286q0 -5 -5 -5t-5 5zM540 404v274l-110 -153q-4 -2 -5 -2h-2q-2 0 -4 2l-111 153v-274q0 -5 -5 -5t-5 5v290q0 6 5 6q2 0 2 -1q1 0 3 -1l117 -161l115 161q4 2 5 2q5 0 5 -6v-290q0 -5 -5 -5t-5 5z" />
    <glyph glyph-name="ellipsis" unicode="&#x2026;" horiz-adv-x="680" 
d="M82 30q0 18 12.5 30.5t30.5 12.5t30.5 -12.5t12.5 -30.5t-12.5 -30.5t-30.5 -12.5t-30.5 12.5t-12.5 30.5zM293 30q0 18 12.5 30.5t30.5 12.5t30.5 -12.5t12.5 -30.5t-12.5 -30.5t-30.5 -12.5t-30.5 12.5t-12.5 30.5zM504 30q0 18 12.5 30.5t30.5 12.5t30.5 -12.5
t12.5 -30.5t-12.5 -30.5t-30.5 -12.5t-30.5 12.5t-12.5 30.5z" />
    <glyph glyph-name="quotedblbase" unicode="&#x201e;" horiz-adv-x="410" 
d="M54 -90q0 8 8 13q51 28 47 77q-27 7 -27 35v21q0 14 9.5 23.5t23.5 9.5t23.5 -9.5t9.5 -23.5v-25q0 -77 -29.5 -106.5t-47 -29.5t-17.5 15zM234 -90q0 8 8 13q51 28 47 77q-27 7 -27 35v21q0 14 10 23.5t23 9.5t23 -9.5t10 -23.5v-25q0 -77 -29.5 -106.5t-47 -29.5
t-17.5 15z" />
    <glyph glyph-name="oe" unicode="&#x153;" horiz-adv-x="1055" 
d="M849.5 30.5q-52.5 -30.5 -121.5 -30t-131.5 49.5t-85.5 124q-22 -76 -83.5 -125t-138.5 -49q-96 0 -163.5 72t-67.5 173t67.5 173t163.5 72q77 0 138.5 -49t83.5 -125q23 76 85 124.5t148 48.5t153.5 -65t74.5 -161v-4q-2 -12 -12 -12h-435v-3q0 -89 62 -153.5t150 -65.5
q55 0 101.5 27t74.5 73q6 12 20 1q7 -7 1 -15q-32 -50 -84.5 -80.5zM83 245q0 -91 60.5 -155.5t145.5 -64.5t146 64.5t61 155.5t-61 155.5t-146 64.5t-145.5 -64.5t-60.5 -155.5zM877 408q-60 55 -140.5 55t-140.5 -55t-70 -137h421q-10 82 -70 137z" />
    <glyph glyph-name="Scaron" unicode="&#x160;" horiz-adv-x="640" 
d="M268 869l69 -76l70 75q19 19 27 19l13 -2q0 -6 -5 -12l-72 -88q-15 -18 -28 -18h-8q-13 0 -28 18l-72 88q-5 6 -5 10t1.5 4.5t6 0t9 -0.5t22.5 -18zM117 59q-36 22 -46.5 32.5t-8 17.5t8.5 9t13 -4.5t31.5 -24.5t87 -43.5t123.5 -25.5q101 0 170.5 50t69.5 123
q0 57 -33 86q-18 16 -34 26.5t-47 20.5q-36 12 -90.5 25t-74.5 18.5t-53 16.5t-50.5 23t-37.5 30q-36 34 -36 100.5t63.5 115.5t153.5 49q99 0 177 -54q28 -19 36 -31q8 -9 -1 -18q-11 -7 -18 1q-76 76 -194 76q-79 0 -135 -41t-56 -99q0 -55 42 -94q31 -28 108 -48
q22 -6 63.5 -15.5t62 -15t54 -16.5t51.5 -23.5t37 -31.5q37 -34 37 -101q0 -83 -76.5 -140.5t-185 -57.5t-212.5 64z" />
    <glyph glyph-name="scaron" unicode="&#x161;" horiz-adv-x="497" 
d="M180 644l69 -76l70 75q19 19 27 19l13 -2q0 -6 -5 -12l-72 -88q-15 -18 -28 -18h-8q-13 0 -28 18l-72 88q-5 6 -5 10t1.5 4.5t6 0t9 -0.5t22.5 -18zM251 0q-46 0 -93 18q-63 25 -91 53q-6 6 -3.5 13t8.5 9t12 -3.5t22.5 -17.5t59.5 -29.5t85 -17.5q67 0 114.5 34t47.5 82
q0 38 -23 58q-25 22 -51 31q-35 11 -72 19.5t-52.5 12.5t-43 15.5t-40.5 23.5q-35 32 -35 80.5t45.5 83.5t99.5 35t92 -16q54 -22 69 -44q5 -5 2 -12t-9.5 -8.5t-11.5 3.5q-51 51 -132 51q-53 0 -91 -27t-38 -66q0 -51 46 -73q36 -18 84.5 -29t66 -16t44 -15.5t40.5 -23.5
q36 -33 36 -87.5t-54.5 -95.5t-133.5 -41z" />
    <glyph glyph-name="percent" unicode="%" horiz-adv-x="824" 
d="M319.5 403q-43.5 -53 -111 -53t-110.5 52.5t-43 124.5v2q0 73 43.5 126t111 53t110.5 -52.5t43 -124.5v-2q0 -73 -43.5 -126zM154 13l11 17l487 663q5 7 10 7q8 0 9.5 -5t-12.5 -25l-487 -662q-5 -5 -10 -5t-7 3.5t-1 6.5zM725.5 45q-43.5 -53 -111 -53t-110.5 52.5
t-43 124.5v2q0 73 43.5 126t111 53t110.5 -52.5t43 -124.5v-2q0 -73 -43.5 -126zM118 410q39 -48 93 -48t91 47.5t37 117.5v2q0 71 -39 119t-92.5 48t-91 -48.5t-37.5 -116.5v-2q0 -71 39 -119zM524 53q40 -48 93 -48t91 47.5t38 116.5v2q0 70 -40 118t-93 48t-91 -48.5
t-38 -115.5v-2q0 -70 40 -118z" />
    <glyph glyph-name="guilsinglright" unicode="&#x203a;" horiz-adv-x="311" 
d="M76 450q1 8 13 10t16 -4l137 -179q10 -13 10 -22t-10 -22l-137 -178q-6 -9 -17.5 -9t-13.5 6q-5 10 6 24l141 178l-141 180q-5 6 -4 16z" />
    <glyph glyph-name="guilsinglleft" unicode="&#x2039;" horiz-adv-x="311" 
d="M231 450q1 -10 -4 -16l-141 -180l141 -178q11 -14 7.5 -22t-15 -8t-17.5 9l-137 178q-10 13 -10 22t10 22l137 179q4 6 16 4t13 -10z" />
    <glyph glyph-name="endash" unicode="&#x2013;" horiz-adv-x="528" 
d="M92 280q-13 -1 -19.5 4.5t-6.5 12.5q0 20 26 20h344q26 0 26 -20q0 -17 -26 -17h-344z" />
    <glyph glyph-name="emdash" unicode="&#x2014;" horiz-adv-x="898" 
d="M92 280q-13 -1 -19.5 4.5t-6.5 12.5q0 20 26 20h429q26 0 26 -20q0 -17 -26 -17h-429z" />
    <glyph glyph-name="florin" unicode="&#x192;" horiz-adv-x="506" 
d="M300.5 672q34.5 33 104 33t69.5 -24q0 -5 -2 -6.5t-3 -2.5t-3 -1h-14q19 0 -6 2l-46 4q-44 6 -74.5 -26.5t-40.5 -88.5l-25 -142h136q23 0 23 -13.5t-23 -13.5h-144l-50 -275q-13 -63 -38 -91t-66.5 -28t-41.5 17q0 9 5.5 11t8.5 3q9 1 21 1q37 4 53.5 24.5t24.5 65.5
l49 272h-90q-23 0 -23 13.5t23 13.5h98l26 145q14 74 48.5 107z" />
    <glyph glyph-name="OE" unicode="&#x152;" horiz-adv-x="1443" 
d="M1121 0h-373q-12 0 -12 13v215q-37 -107 -124.5 -174t-197.5 -67q-142 0 -241 105.5t-100 256.5q1 150 100 255.5t241 105.5q110 0 197.5 -67t124.5 -174v218q0 11 12 13h373q12 0 12 -12.5t-12 -12.5h-360v-312h317q12 0 12 -12.5t-12 -12.5h-317v-313h360
q12 0 12 -12.5t-12 -12.5zM192.5 586q-92.5 -98 -92.5 -236.5t92 -236t222 -99.5q129 2 221 99.5t93 235.5q-1 139 -93 237t-221 98t-221.5 -98z" />
  </font>
</defs>
</svg>
